G04 EAGLE Gerber RS-274X export*
G75*
%MOMM*%
%FSLAX34Y34*%
%LPD*%
%INBottom Copper*%
%IPPOS*%
%AMOC8*
5,1,8,0,0,1.08239X$1,22.5*%
G01*
%ADD10C,1.960000*%
%ADD11C,1.651000*%
%ADD12R,1.295400X1.295400*%
%ADD13C,1.295400*%
%ADD14C,1.778000*%
%ADD15C,1.498600*%
%ADD16R,1.031241X0.949959*%
%ADD17R,1.524000X1.524000*%
%ADD18P,1.649562X8X202.500000*%
%ADD19C,4.445000*%
%ADD20C,1.016000*%
%ADD21C,0.609600*%
%ADD22C,0.508000*%
%ADD23C,0.381000*%
%ADD24C,0.254000*%

G36*
X1013444Y758308D02*
X1013444Y758308D01*
X1013437Y758427D01*
X1013424Y758465D01*
X1013419Y758506D01*
X1013376Y758616D01*
X1013339Y758729D01*
X1013317Y758764D01*
X1013302Y758801D01*
X1013233Y758897D01*
X1013169Y758998D01*
X1013139Y759026D01*
X1013116Y759059D01*
X1013024Y759135D01*
X1012937Y759216D01*
X1012902Y759236D01*
X1012871Y759261D01*
X1012763Y759312D01*
X1012659Y759370D01*
X1012619Y759380D01*
X1012583Y759397D01*
X1012466Y759419D01*
X1012351Y759449D01*
X1012291Y759453D01*
X1012271Y759457D01*
X1012250Y759455D01*
X1012190Y759459D01*
X3810Y759459D01*
X3692Y759444D01*
X3573Y759437D01*
X3535Y759424D01*
X3494Y759419D01*
X3384Y759376D01*
X3271Y759339D01*
X3236Y759317D01*
X3199Y759302D01*
X3103Y759233D01*
X3002Y759169D01*
X2974Y759139D01*
X2941Y759116D01*
X2865Y759024D01*
X2784Y758937D01*
X2764Y758902D01*
X2739Y758871D01*
X2688Y758763D01*
X2630Y758659D01*
X2620Y758619D01*
X2603Y758583D01*
X2581Y758466D01*
X2551Y758351D01*
X2547Y758291D01*
X2543Y758271D01*
X2545Y758250D01*
X2541Y758190D01*
X2541Y3810D01*
X2556Y3692D01*
X2563Y3573D01*
X2576Y3535D01*
X2581Y3494D01*
X2624Y3384D01*
X2661Y3271D01*
X2683Y3236D01*
X2698Y3199D01*
X2767Y3103D01*
X2831Y3002D01*
X2861Y2974D01*
X2884Y2941D01*
X2976Y2865D01*
X3063Y2784D01*
X3098Y2764D01*
X3129Y2739D01*
X3237Y2688D01*
X3341Y2630D01*
X3381Y2620D01*
X3417Y2603D01*
X3534Y2581D01*
X3649Y2551D01*
X3709Y2547D01*
X3729Y2543D01*
X3750Y2545D01*
X3810Y2541D01*
X1012190Y2541D01*
X1012308Y2556D01*
X1012427Y2563D01*
X1012465Y2576D01*
X1012506Y2581D01*
X1012616Y2624D01*
X1012729Y2661D01*
X1012764Y2683D01*
X1012801Y2698D01*
X1012897Y2767D01*
X1012998Y2831D01*
X1013026Y2861D01*
X1013059Y2884D01*
X1013135Y2976D01*
X1013216Y3063D01*
X1013236Y3098D01*
X1013261Y3129D01*
X1013312Y3237D01*
X1013370Y3341D01*
X1013380Y3381D01*
X1013397Y3417D01*
X1013419Y3534D01*
X1013449Y3649D01*
X1013453Y3709D01*
X1013457Y3729D01*
X1013455Y3750D01*
X1013459Y3810D01*
X1013459Y758190D01*
X1013444Y758308D01*
G37*
%LPC*%
G36*
X76200Y684531D02*
X76200Y684531D01*
X76318Y684546D01*
X76437Y684553D01*
X76475Y684566D01*
X76516Y684571D01*
X76626Y684614D01*
X76739Y684651D01*
X76774Y684673D01*
X76811Y684688D01*
X76907Y684758D01*
X77008Y684821D01*
X77036Y684851D01*
X77069Y684874D01*
X77145Y684966D01*
X77226Y685053D01*
X77246Y685088D01*
X77271Y685119D01*
X77322Y685227D01*
X77380Y685331D01*
X77390Y685371D01*
X77407Y685407D01*
X77429Y685524D01*
X77459Y685639D01*
X77463Y685700D01*
X77467Y685720D01*
X77465Y685740D01*
X77469Y685800D01*
X77469Y748031D01*
X938531Y748031D01*
X938531Y685800D01*
X938546Y685682D01*
X938553Y685563D01*
X938566Y685525D01*
X938571Y685484D01*
X938614Y685374D01*
X938651Y685261D01*
X938673Y685226D01*
X938688Y685189D01*
X938758Y685093D01*
X938821Y684992D01*
X938851Y684964D01*
X938874Y684931D01*
X938966Y684856D01*
X939053Y684774D01*
X939088Y684754D01*
X939119Y684729D01*
X939227Y684678D01*
X939331Y684620D01*
X939371Y684610D01*
X939407Y684593D01*
X939524Y684571D01*
X939639Y684541D01*
X939700Y684537D01*
X939720Y684533D01*
X939740Y684535D01*
X939800Y684531D01*
X1002031Y684531D01*
X1002031Y77469D01*
X939800Y77469D01*
X939682Y77454D01*
X939563Y77447D01*
X939525Y77434D01*
X939484Y77429D01*
X939374Y77386D01*
X939261Y77349D01*
X939226Y77327D01*
X939189Y77312D01*
X939093Y77243D01*
X938992Y77179D01*
X938964Y77149D01*
X938931Y77126D01*
X938856Y77034D01*
X938774Y76947D01*
X938754Y76912D01*
X938729Y76881D01*
X938678Y76773D01*
X938620Y76669D01*
X938610Y76629D01*
X938593Y76593D01*
X938571Y76476D01*
X938541Y76361D01*
X938537Y76301D01*
X938533Y76281D01*
X938535Y76260D01*
X938531Y76200D01*
X938531Y13969D01*
X77469Y13969D01*
X77469Y76200D01*
X77454Y76318D01*
X77447Y76437D01*
X77434Y76475D01*
X77429Y76516D01*
X77386Y76626D01*
X77349Y76739D01*
X77327Y76774D01*
X77312Y76811D01*
X77243Y76907D01*
X77179Y77008D01*
X77149Y77036D01*
X77126Y77069D01*
X77034Y77145D01*
X76947Y77226D01*
X76912Y77246D01*
X76881Y77271D01*
X76773Y77322D01*
X76669Y77380D01*
X76629Y77390D01*
X76593Y77407D01*
X76476Y77429D01*
X76361Y77459D01*
X76301Y77463D01*
X76281Y77467D01*
X76260Y77465D01*
X76200Y77469D01*
X13969Y77469D01*
X13969Y684531D01*
X76200Y684531D01*
G37*
%LPD*%
%LPC*%
G36*
X40639Y726439D02*
X40639Y726439D01*
X40639Y748536D01*
X42255Y748354D01*
X44967Y747735D01*
X47592Y746817D01*
X50099Y745610D01*
X52454Y744130D01*
X54629Y742395D01*
X56595Y740429D01*
X58330Y738254D01*
X59810Y735899D01*
X61017Y733392D01*
X61935Y730767D01*
X62554Y728055D01*
X62736Y726439D01*
X40639Y726439D01*
G37*
%LPD*%
%LPC*%
G36*
X980439Y40639D02*
X980439Y40639D01*
X980439Y62736D01*
X982055Y62554D01*
X984767Y61935D01*
X987392Y61017D01*
X989899Y59810D01*
X992254Y58330D01*
X994429Y56595D01*
X996395Y54629D01*
X998130Y52454D01*
X999610Y50099D01*
X1000817Y47592D01*
X1001735Y44967D01*
X1002354Y42255D01*
X1002536Y40639D01*
X980439Y40639D01*
G37*
%LPD*%
%LPC*%
G36*
X980439Y726439D02*
X980439Y726439D01*
X980439Y748536D01*
X982055Y748354D01*
X984767Y747735D01*
X987392Y746817D01*
X989899Y745610D01*
X992254Y744130D01*
X994429Y742395D01*
X996395Y740429D01*
X998130Y738254D01*
X999610Y735899D01*
X1000817Y733392D01*
X1001735Y730767D01*
X1002354Y728055D01*
X1002536Y726439D01*
X980439Y726439D01*
G37*
%LPD*%
%LPC*%
G36*
X40639Y40639D02*
X40639Y40639D01*
X40639Y62736D01*
X42255Y62554D01*
X44967Y61935D01*
X47592Y61017D01*
X50099Y59810D01*
X52454Y58330D01*
X54629Y56595D01*
X56595Y54629D01*
X58330Y52454D01*
X59810Y50099D01*
X61017Y47592D01*
X61935Y44967D01*
X62554Y42255D01*
X62736Y40639D01*
X40639Y40639D01*
G37*
%LPD*%
%LPC*%
G36*
X40639Y35561D02*
X40639Y35561D01*
X62736Y35561D01*
X62554Y33945D01*
X61935Y31233D01*
X61017Y28608D01*
X59810Y26101D01*
X58330Y23746D01*
X56595Y21571D01*
X54629Y19605D01*
X52454Y17870D01*
X50099Y16390D01*
X47592Y15183D01*
X44967Y14265D01*
X42255Y13646D01*
X40639Y13464D01*
X40639Y35561D01*
G37*
%LPD*%
%LPC*%
G36*
X13464Y726439D02*
X13464Y726439D01*
X13646Y728055D01*
X14265Y730767D01*
X15183Y733392D01*
X16390Y735899D01*
X17870Y738254D01*
X19605Y740429D01*
X21571Y742395D01*
X23746Y744130D01*
X26101Y745610D01*
X28608Y746817D01*
X31233Y747735D01*
X33945Y748354D01*
X35561Y748536D01*
X35561Y726439D01*
X13464Y726439D01*
G37*
%LPD*%
%LPC*%
G36*
X980439Y721361D02*
X980439Y721361D01*
X1002536Y721361D01*
X1002354Y719745D01*
X1001735Y717033D01*
X1000817Y714408D01*
X999610Y711901D01*
X998130Y709546D01*
X996395Y707371D01*
X994429Y705405D01*
X992254Y703670D01*
X989899Y702190D01*
X987392Y700983D01*
X984767Y700065D01*
X982055Y699446D01*
X980439Y699264D01*
X980439Y721361D01*
G37*
%LPD*%
%LPC*%
G36*
X953264Y40639D02*
X953264Y40639D01*
X953446Y42255D01*
X954065Y44967D01*
X954983Y47592D01*
X956190Y50099D01*
X957670Y52454D01*
X959405Y54629D01*
X961371Y56595D01*
X963546Y58330D01*
X965901Y59810D01*
X968408Y61017D01*
X971033Y61935D01*
X973745Y62554D01*
X975361Y62736D01*
X975361Y40639D01*
X953264Y40639D01*
G37*
%LPD*%
%LPC*%
G36*
X40639Y721361D02*
X40639Y721361D01*
X62736Y721361D01*
X62554Y719745D01*
X61935Y717033D01*
X61017Y714408D01*
X59810Y711901D01*
X58330Y709546D01*
X56595Y707371D01*
X54629Y705405D01*
X52454Y703670D01*
X50099Y702190D01*
X47592Y700983D01*
X44967Y700065D01*
X42255Y699446D01*
X40639Y699264D01*
X40639Y721361D01*
G37*
%LPD*%
%LPC*%
G36*
X13464Y40639D02*
X13464Y40639D01*
X13646Y42255D01*
X14265Y44967D01*
X15183Y47592D01*
X16390Y50099D01*
X17870Y52454D01*
X19605Y54629D01*
X21571Y56595D01*
X23746Y58330D01*
X26101Y59810D01*
X28608Y61017D01*
X31233Y61935D01*
X33945Y62554D01*
X35561Y62736D01*
X35561Y40639D01*
X13464Y40639D01*
G37*
%LPD*%
%LPC*%
G36*
X953264Y726439D02*
X953264Y726439D01*
X953446Y728055D01*
X954065Y730767D01*
X954983Y733392D01*
X956190Y735899D01*
X957670Y738254D01*
X959405Y740429D01*
X961371Y742395D01*
X963546Y744130D01*
X965901Y745610D01*
X968408Y746817D01*
X971033Y747735D01*
X973745Y748354D01*
X975361Y748536D01*
X975361Y726439D01*
X953264Y726439D01*
G37*
%LPD*%
%LPC*%
G36*
X980439Y35561D02*
X980439Y35561D01*
X1002536Y35561D01*
X1002354Y33945D01*
X1001735Y31233D01*
X1000817Y28608D01*
X999610Y26101D01*
X998130Y23746D01*
X996395Y21571D01*
X994429Y19605D01*
X992254Y17870D01*
X989899Y16390D01*
X987392Y15183D01*
X984767Y14265D01*
X982055Y13646D01*
X980439Y13464D01*
X980439Y35561D01*
G37*
%LPD*%
%LPC*%
G36*
X33945Y699446D02*
X33945Y699446D01*
X31233Y700065D01*
X28608Y700983D01*
X26101Y702190D01*
X23746Y703670D01*
X21571Y705405D01*
X19605Y707371D01*
X17870Y709546D01*
X16390Y711901D01*
X15183Y714408D01*
X14265Y717033D01*
X13646Y719745D01*
X13464Y721361D01*
X35561Y721361D01*
X35561Y699264D01*
X33945Y699446D01*
G37*
%LPD*%
%LPC*%
G36*
X973745Y699446D02*
X973745Y699446D01*
X971033Y700065D01*
X968408Y700983D01*
X965901Y702190D01*
X963546Y703670D01*
X961371Y705405D01*
X959405Y707371D01*
X957670Y709546D01*
X956190Y711901D01*
X954983Y714408D01*
X954065Y717033D01*
X953446Y719745D01*
X953264Y721361D01*
X975361Y721361D01*
X975361Y699264D01*
X973745Y699446D01*
G37*
%LPD*%
%LPC*%
G36*
X973745Y13646D02*
X973745Y13646D01*
X971033Y14265D01*
X968408Y15183D01*
X965901Y16390D01*
X963546Y17870D01*
X961371Y19605D01*
X959405Y21571D01*
X957670Y23746D01*
X956190Y26101D01*
X954983Y28608D01*
X954065Y31233D01*
X953446Y33945D01*
X953264Y35561D01*
X975361Y35561D01*
X975361Y13464D01*
X973745Y13646D01*
G37*
%LPD*%
%LPC*%
G36*
X33945Y13646D02*
X33945Y13646D01*
X31233Y14265D01*
X28608Y15183D01*
X26101Y16390D01*
X23746Y17870D01*
X21571Y19605D01*
X19605Y21571D01*
X17870Y23746D01*
X16390Y26101D01*
X15183Y28608D01*
X14265Y31233D01*
X13646Y33945D01*
X13464Y35561D01*
X35561Y35561D01*
X35561Y13464D01*
X33945Y13646D01*
G37*
%LPD*%
%LPC*%
G36*
X38099Y38099D02*
X38099Y38099D01*
X38099Y38101D01*
X38101Y38101D01*
X38101Y38099D01*
X38099Y38099D01*
G37*
%LPD*%
%LPC*%
G36*
X977899Y38099D02*
X977899Y38099D01*
X977899Y38101D01*
X977901Y38101D01*
X977901Y38099D01*
X977899Y38099D01*
G37*
%LPD*%
%LPC*%
G36*
X977899Y723899D02*
X977899Y723899D01*
X977899Y723901D01*
X977901Y723901D01*
X977901Y723899D01*
X977899Y723899D01*
G37*
%LPD*%
%LPC*%
G36*
X38099Y723899D02*
X38099Y723899D01*
X38099Y723901D01*
X38101Y723901D01*
X38101Y723899D01*
X38099Y723899D01*
G37*
%LPD*%
D10*
X39100Y177400D03*
X39100Y127400D03*
X164100Y127400D03*
X164100Y177400D03*
D11*
X341100Y407700D03*
X214100Y407700D03*
D12*
X139700Y495300D03*
D13*
X165100Y495300D03*
X190500Y495300D03*
X215900Y495300D03*
X241300Y495300D03*
X266700Y495300D03*
X292100Y495300D03*
X317500Y495300D03*
X342900Y495300D03*
X342900Y571500D03*
X317500Y571500D03*
X292100Y571500D03*
X266700Y571500D03*
X241300Y571500D03*
X215900Y571500D03*
X190500Y571500D03*
X165100Y571500D03*
X139700Y571500D03*
D11*
X941100Y522500D03*
X941100Y671300D03*
D14*
X276860Y673100D03*
X302260Y673100D03*
X327660Y673100D03*
X353060Y673100D03*
D15*
X165100Y342900D03*
X165100Y317500D03*
X165100Y292100D03*
X52578Y342900D03*
X52578Y317500D03*
X52578Y292100D03*
D16*
X101600Y225679D03*
X101600Y241681D03*
X469900Y474599D03*
X469900Y490601D03*
X495300Y474599D03*
X495300Y490601D03*
D17*
X880700Y371100D03*
D18*
X880700Y345700D03*
X855300Y371100D03*
X855300Y345700D03*
X829900Y371100D03*
X829900Y345700D03*
X804500Y371100D03*
X804500Y345700D03*
X779100Y371100D03*
X779100Y345700D03*
X753700Y371100D03*
X753700Y345700D03*
X728300Y371100D03*
X728300Y345700D03*
X702900Y371100D03*
X702900Y345700D03*
X677500Y371100D03*
X677500Y345700D03*
X652100Y371100D03*
X652100Y345700D03*
X626700Y371100D03*
X626700Y345700D03*
X601300Y371100D03*
X601300Y345700D03*
X575900Y371100D03*
X575900Y345700D03*
X550500Y371100D03*
X550500Y345700D03*
X525100Y371100D03*
X525100Y345700D03*
X499700Y371100D03*
X499700Y345700D03*
X474300Y371100D03*
X474300Y345700D03*
X448900Y371100D03*
X448900Y345700D03*
D17*
X880700Y117100D03*
D18*
X880700Y91700D03*
X855300Y117100D03*
X855300Y91700D03*
X829900Y117100D03*
X829900Y91700D03*
X804500Y117100D03*
X804500Y91700D03*
X779100Y117100D03*
X779100Y91700D03*
X753700Y117100D03*
X753700Y91700D03*
X728300Y117100D03*
X728300Y91700D03*
X702900Y117100D03*
X702900Y91700D03*
X677500Y117100D03*
X677500Y91700D03*
X652100Y117100D03*
X652100Y91700D03*
X626700Y117100D03*
X626700Y91700D03*
X601300Y117100D03*
X601300Y91700D03*
X575900Y117100D03*
X575900Y91700D03*
X550500Y117100D03*
X550500Y91700D03*
X525100Y117100D03*
X525100Y91700D03*
X499700Y117100D03*
X499700Y91700D03*
X474300Y117100D03*
X474300Y91700D03*
X448900Y117100D03*
X448900Y91700D03*
D19*
X38100Y38100D03*
X977900Y723900D03*
X38100Y723900D03*
X977900Y38100D03*
D20*
X723900Y584200D03*
X190500Y50800D03*
X825500Y203200D03*
D21*
X342900Y469900D03*
X190500Y342900D03*
X165100Y38100D03*
D22*
X601300Y313100D02*
X601300Y345700D01*
X728300Y186100D02*
X728300Y117100D01*
X728300Y186100D02*
X601300Y313100D01*
D23*
X469900Y490601D02*
X469900Y504190D01*
D21*
X469900Y504190D03*
D23*
X495300Y504190D02*
X495300Y490601D01*
D21*
X495300Y504190D03*
D23*
X101600Y264160D02*
X101600Y241681D01*
D24*
X101600Y264160D02*
X101600Y264541D01*
D21*
X101600Y264160D03*
X53340Y373380D03*
X967740Y523240D03*
D24*
X276860Y668020D02*
X276860Y673100D01*
X467360Y474599D02*
X469900Y474599D01*
X469900Y464439D01*
X539070Y395269D01*
X539070Y357130D02*
X550500Y345700D01*
X539070Y357130D02*
X539070Y395269D01*
X467360Y474599D02*
X467360Y477520D01*
X276860Y668020D01*
X561930Y359670D02*
X575900Y345700D01*
X495300Y457200D02*
X495300Y474599D01*
X495300Y457200D02*
X561930Y390570D01*
X561930Y359670D01*
X302260Y657860D02*
X302260Y673100D01*
X302260Y657860D02*
X444500Y515620D01*
X483790Y486109D02*
X495300Y474599D01*
X483790Y486109D02*
X483790Y505079D01*
X473249Y515620D01*
X444500Y515620D01*
X414000Y177400D02*
X164100Y177400D01*
X414000Y177400D02*
X474300Y117100D01*
X87379Y225679D02*
X39100Y177400D01*
X87379Y225679D02*
X101600Y225679D01*
X115821Y225679D02*
X164100Y177400D01*
X115821Y225679D02*
X101600Y225679D01*
M02*
