G04 EAGLE Gerber RS-274X export*
G75*
%MOMM*%
%FSLAX34Y34*%
%LPD*%
%INCopper Layer 15*%
%IPPOS*%
%AMOC8*
5,1,8,0,0,1.08239X$1,22.5*%
G01*
%ADD10C,1.960000*%
%ADD11C,1.244600*%
%ADD12C,1.102363*%
%ADD13C,1.422400*%
%ADD14C,1.386838*%
%ADD15C,4.191000*%
%ADD16C,0.609600*%

G36*
X1012308Y2556D02*
X1012308Y2556D01*
X1012427Y2563D01*
X1012465Y2576D01*
X1012506Y2581D01*
X1012616Y2624D01*
X1012729Y2661D01*
X1012764Y2683D01*
X1012801Y2698D01*
X1012897Y2767D01*
X1012998Y2831D01*
X1013026Y2861D01*
X1013059Y2884D01*
X1013135Y2976D01*
X1013216Y3063D01*
X1013236Y3098D01*
X1013261Y3129D01*
X1013312Y3237D01*
X1013370Y3341D01*
X1013380Y3381D01*
X1013397Y3417D01*
X1013419Y3534D01*
X1013449Y3649D01*
X1013453Y3709D01*
X1013457Y3729D01*
X1013455Y3750D01*
X1013459Y3810D01*
X1013459Y758190D01*
X1013444Y758308D01*
X1013437Y758427D01*
X1013424Y758465D01*
X1013419Y758506D01*
X1013376Y758616D01*
X1013339Y758729D01*
X1013317Y758764D01*
X1013302Y758801D01*
X1013233Y758897D01*
X1013169Y758998D01*
X1013139Y759026D01*
X1013116Y759059D01*
X1013024Y759135D01*
X1012937Y759216D01*
X1012902Y759236D01*
X1012871Y759261D01*
X1012763Y759312D01*
X1012659Y759370D01*
X1012619Y759380D01*
X1012583Y759397D01*
X1012466Y759419D01*
X1012351Y759449D01*
X1012291Y759453D01*
X1012271Y759457D01*
X1012250Y759455D01*
X1012190Y759459D01*
X3810Y759459D01*
X3692Y759444D01*
X3573Y759437D01*
X3535Y759424D01*
X3494Y759419D01*
X3384Y759376D01*
X3271Y759339D01*
X3236Y759317D01*
X3199Y759302D01*
X3103Y759233D01*
X3002Y759169D01*
X2974Y759139D01*
X2941Y759116D01*
X2865Y759024D01*
X2784Y758937D01*
X2764Y758902D01*
X2739Y758871D01*
X2688Y758763D01*
X2630Y758659D01*
X2620Y758619D01*
X2603Y758583D01*
X2581Y758466D01*
X2551Y758351D01*
X2547Y758291D01*
X2543Y758271D01*
X2545Y758250D01*
X2541Y758190D01*
X2541Y3810D01*
X2556Y3692D01*
X2563Y3573D01*
X2576Y3535D01*
X2581Y3494D01*
X2624Y3384D01*
X2661Y3271D01*
X2683Y3236D01*
X2698Y3199D01*
X2767Y3103D01*
X2831Y3002D01*
X2861Y2974D01*
X2884Y2941D01*
X2976Y2865D01*
X3063Y2784D01*
X3098Y2764D01*
X3129Y2739D01*
X3237Y2688D01*
X3341Y2630D01*
X3381Y2620D01*
X3417Y2603D01*
X3534Y2581D01*
X3649Y2551D01*
X3709Y2547D01*
X3729Y2543D01*
X3750Y2545D01*
X3810Y2541D01*
X1012190Y2541D01*
X1012308Y2556D01*
G37*
%LPC*%
G36*
X582622Y326389D02*
X582622Y326389D01*
X580389Y328622D01*
X580389Y336174D01*
X580383Y336224D01*
X580385Y336273D01*
X580363Y336381D01*
X580349Y336490D01*
X580331Y336536D01*
X580321Y336585D01*
X580273Y336683D01*
X580232Y336785D01*
X580203Y336826D01*
X580181Y336870D01*
X580110Y336954D01*
X580046Y337043D01*
X580007Y337074D01*
X579975Y337112D01*
X579885Y337175D01*
X579801Y337246D01*
X579756Y337267D01*
X579715Y337295D01*
X579612Y337334D01*
X579513Y337381D01*
X579464Y337390D01*
X579418Y337408D01*
X579308Y337420D01*
X579201Y337441D01*
X579151Y337438D01*
X579102Y337443D01*
X578993Y337428D01*
X578883Y337421D01*
X578836Y337406D01*
X578787Y337399D01*
X578634Y337347D01*
X577643Y336936D01*
X574157Y336936D01*
X570936Y338270D01*
X568470Y340736D01*
X567136Y343957D01*
X567136Y347443D01*
X568470Y350664D01*
X570936Y353130D01*
X574157Y354464D01*
X577643Y354464D01*
X578634Y354053D01*
X578682Y354040D01*
X578727Y354019D01*
X578835Y353998D01*
X578941Y353969D01*
X578991Y353968D01*
X579040Y353959D01*
X579149Y353966D01*
X579259Y353964D01*
X579307Y353976D01*
X579357Y353979D01*
X579461Y354013D01*
X579568Y354038D01*
X579612Y354062D01*
X579659Y354077D01*
X579752Y354136D01*
X579849Y354187D01*
X579886Y354220D01*
X579928Y354247D01*
X580003Y354327D01*
X580085Y354401D01*
X580112Y354442D01*
X580146Y354479D01*
X580199Y354575D01*
X580259Y354667D01*
X580276Y354714D01*
X580300Y354757D01*
X580327Y354863D01*
X580363Y354967D01*
X580367Y355017D01*
X580379Y355065D01*
X580389Y355226D01*
X580389Y361574D01*
X580383Y361624D01*
X580385Y361673D01*
X580363Y361781D01*
X580349Y361890D01*
X580331Y361936D01*
X580321Y361985D01*
X580273Y362083D01*
X580232Y362185D01*
X580203Y362226D01*
X580181Y362270D01*
X580110Y362354D01*
X580046Y362443D01*
X580007Y362474D01*
X579975Y362512D01*
X579885Y362575D01*
X579801Y362646D01*
X579756Y362667D01*
X579715Y362695D01*
X579612Y362734D01*
X579513Y362781D01*
X579464Y362790D01*
X579418Y362808D01*
X579308Y362820D01*
X579201Y362841D01*
X579151Y362838D01*
X579102Y362843D01*
X578993Y362828D01*
X578883Y362821D01*
X578836Y362806D01*
X578787Y362799D01*
X578634Y362747D01*
X577643Y362336D01*
X574157Y362336D01*
X570936Y363670D01*
X568470Y366136D01*
X567136Y369357D01*
X567136Y372843D01*
X568210Y375434D01*
X568223Y375482D01*
X568244Y375527D01*
X568264Y375635D01*
X568293Y375741D01*
X568294Y375791D01*
X568304Y375840D01*
X568297Y375949D01*
X568299Y376059D01*
X568287Y376107D01*
X568284Y376157D01*
X568250Y376261D01*
X568224Y376368D01*
X568201Y376412D01*
X568186Y376459D01*
X568127Y376552D01*
X568076Y376649D01*
X568042Y376686D01*
X568016Y376728D01*
X567936Y376803D01*
X567862Y376885D01*
X567820Y376912D01*
X567784Y376946D01*
X567688Y376999D01*
X567596Y377059D01*
X567549Y377076D01*
X567506Y377100D01*
X567399Y377127D01*
X567295Y377163D01*
X567246Y377167D01*
X567198Y377179D01*
X567037Y377189D01*
X559363Y377189D01*
X559314Y377183D01*
X559264Y377185D01*
X559157Y377163D01*
X559048Y377149D01*
X559001Y377131D01*
X558953Y377121D01*
X558854Y377073D01*
X558752Y377032D01*
X558712Y377003D01*
X558667Y376981D01*
X558584Y376910D01*
X558495Y376846D01*
X558463Y376807D01*
X558425Y376775D01*
X558362Y376685D01*
X558292Y376601D01*
X558271Y376556D01*
X558242Y376515D01*
X558203Y376412D01*
X558156Y376313D01*
X558147Y376264D01*
X558129Y376218D01*
X558117Y376108D01*
X558096Y376001D01*
X558099Y375951D01*
X558094Y375902D01*
X558109Y375793D01*
X558116Y375683D01*
X558131Y375636D01*
X558138Y375587D01*
X558190Y375434D01*
X559264Y372843D01*
X559264Y369357D01*
X557930Y366136D01*
X555464Y363670D01*
X552243Y362336D01*
X548757Y362336D01*
X545536Y363670D01*
X543070Y366136D01*
X541736Y369357D01*
X541736Y372843D01*
X542810Y375434D01*
X542823Y375482D01*
X542844Y375527D01*
X542864Y375635D01*
X542893Y375741D01*
X542894Y375791D01*
X542904Y375840D01*
X542897Y375949D01*
X542899Y376059D01*
X542887Y376107D01*
X542884Y376157D01*
X542850Y376261D01*
X542824Y376368D01*
X542801Y376412D01*
X542786Y376459D01*
X542727Y376552D01*
X542676Y376649D01*
X542642Y376686D01*
X542616Y376728D01*
X542536Y376803D01*
X542462Y376885D01*
X542420Y376912D01*
X542384Y376946D01*
X542288Y376999D01*
X542196Y377059D01*
X542149Y377076D01*
X542106Y377100D01*
X541999Y377127D01*
X541895Y377163D01*
X541846Y377167D01*
X541798Y377179D01*
X541637Y377189D01*
X533963Y377189D01*
X533914Y377183D01*
X533864Y377185D01*
X533757Y377163D01*
X533648Y377149D01*
X533601Y377131D01*
X533553Y377121D01*
X533454Y377073D01*
X533352Y377032D01*
X533312Y377003D01*
X533267Y376981D01*
X533184Y376910D01*
X533095Y376846D01*
X533063Y376807D01*
X533025Y376775D01*
X532962Y376685D01*
X532892Y376601D01*
X532871Y376556D01*
X532842Y376515D01*
X532803Y376412D01*
X532756Y376313D01*
X532747Y376264D01*
X532729Y376218D01*
X532717Y376108D01*
X532696Y376001D01*
X532699Y375951D01*
X532694Y375902D01*
X532709Y375793D01*
X532716Y375683D01*
X532731Y375636D01*
X532738Y375587D01*
X532790Y375434D01*
X533864Y372843D01*
X533864Y369357D01*
X532530Y366136D01*
X530064Y363670D01*
X526843Y362336D01*
X523357Y362336D01*
X520136Y363670D01*
X517670Y366136D01*
X516336Y369357D01*
X516336Y372843D01*
X517410Y375434D01*
X517423Y375482D01*
X517444Y375527D01*
X517464Y375635D01*
X517493Y375741D01*
X517494Y375791D01*
X517504Y375840D01*
X517497Y375949D01*
X517499Y376059D01*
X517487Y376107D01*
X517484Y376157D01*
X517450Y376261D01*
X517424Y376368D01*
X517401Y376412D01*
X517386Y376459D01*
X517327Y376552D01*
X517276Y376649D01*
X517242Y376686D01*
X517216Y376728D01*
X517136Y376803D01*
X517062Y376885D01*
X517020Y376912D01*
X516984Y376946D01*
X516888Y376999D01*
X516796Y377059D01*
X516749Y377076D01*
X516706Y377100D01*
X516599Y377127D01*
X516495Y377163D01*
X516446Y377167D01*
X516398Y377179D01*
X516237Y377189D01*
X508563Y377189D01*
X508514Y377183D01*
X508464Y377185D01*
X508357Y377163D01*
X508248Y377149D01*
X508201Y377131D01*
X508153Y377121D01*
X508054Y377073D01*
X507952Y377032D01*
X507912Y377003D01*
X507867Y376981D01*
X507784Y376910D01*
X507695Y376846D01*
X507663Y376807D01*
X507625Y376775D01*
X507562Y376685D01*
X507492Y376601D01*
X507471Y376556D01*
X507442Y376515D01*
X507403Y376412D01*
X507356Y376313D01*
X507347Y376264D01*
X507329Y376218D01*
X507317Y376108D01*
X507296Y376001D01*
X507299Y375951D01*
X507294Y375902D01*
X507309Y375793D01*
X507316Y375683D01*
X507331Y375636D01*
X507338Y375587D01*
X507390Y375434D01*
X508464Y372843D01*
X508464Y369357D01*
X507130Y366136D01*
X504664Y363670D01*
X501443Y362336D01*
X497957Y362336D01*
X494736Y363670D01*
X492270Y366136D01*
X490936Y369357D01*
X490936Y372843D01*
X492010Y375434D01*
X492023Y375482D01*
X492044Y375527D01*
X492064Y375635D01*
X492093Y375741D01*
X492094Y375791D01*
X492104Y375840D01*
X492097Y375949D01*
X492099Y376059D01*
X492087Y376107D01*
X492084Y376157D01*
X492050Y376261D01*
X492024Y376368D01*
X492001Y376412D01*
X491986Y376459D01*
X491927Y376552D01*
X491876Y376649D01*
X491842Y376686D01*
X491816Y376728D01*
X491736Y376803D01*
X491662Y376885D01*
X491620Y376912D01*
X491584Y376946D01*
X491488Y376999D01*
X491396Y377059D01*
X491349Y377076D01*
X491306Y377100D01*
X491199Y377127D01*
X491095Y377163D01*
X491046Y377167D01*
X490998Y377179D01*
X490837Y377189D01*
X483163Y377189D01*
X483114Y377183D01*
X483064Y377185D01*
X482957Y377163D01*
X482848Y377149D01*
X482801Y377131D01*
X482753Y377121D01*
X482654Y377073D01*
X482552Y377032D01*
X482512Y377003D01*
X482467Y376981D01*
X482384Y376910D01*
X482295Y376846D01*
X482263Y376807D01*
X482225Y376775D01*
X482162Y376685D01*
X482092Y376601D01*
X482071Y376556D01*
X482042Y376515D01*
X482003Y376412D01*
X481956Y376313D01*
X481947Y376264D01*
X481929Y376218D01*
X481917Y376108D01*
X481896Y376001D01*
X481899Y375951D01*
X481894Y375902D01*
X481909Y375793D01*
X481916Y375683D01*
X481931Y375636D01*
X481938Y375587D01*
X481990Y375434D01*
X483064Y372843D01*
X483064Y369357D01*
X481730Y366136D01*
X479264Y363670D01*
X476043Y362336D01*
X472557Y362336D01*
X469336Y363670D01*
X466870Y366136D01*
X465536Y369357D01*
X465536Y372843D01*
X466610Y375434D01*
X466623Y375482D01*
X466644Y375527D01*
X466664Y375635D01*
X466693Y375741D01*
X466694Y375791D01*
X466704Y375840D01*
X466697Y375949D01*
X466699Y376059D01*
X466687Y376107D01*
X466684Y376157D01*
X466650Y376261D01*
X466624Y376368D01*
X466601Y376412D01*
X466586Y376459D01*
X466527Y376552D01*
X466476Y376649D01*
X466442Y376686D01*
X466416Y376728D01*
X466336Y376803D01*
X466262Y376885D01*
X466220Y376912D01*
X466184Y376946D01*
X466088Y376999D01*
X465996Y377059D01*
X465949Y377076D01*
X465906Y377100D01*
X465799Y377127D01*
X465695Y377163D01*
X465646Y377167D01*
X465598Y377179D01*
X465437Y377189D01*
X457763Y377189D01*
X457714Y377183D01*
X457664Y377185D01*
X457557Y377163D01*
X457448Y377149D01*
X457401Y377131D01*
X457353Y377121D01*
X457254Y377073D01*
X457152Y377032D01*
X457112Y377003D01*
X457067Y376981D01*
X456984Y376910D01*
X456895Y376846D01*
X456863Y376807D01*
X456825Y376775D01*
X456762Y376685D01*
X456692Y376601D01*
X456671Y376556D01*
X456642Y376515D01*
X456603Y376412D01*
X456556Y376313D01*
X456547Y376264D01*
X456529Y376218D01*
X456517Y376108D01*
X456496Y376001D01*
X456499Y375951D01*
X456494Y375902D01*
X456509Y375793D01*
X456516Y375683D01*
X456531Y375636D01*
X456538Y375587D01*
X456590Y375434D01*
X457664Y372843D01*
X457664Y369357D01*
X456330Y366136D01*
X453864Y363670D01*
X450643Y362336D01*
X447157Y362336D01*
X443936Y363670D01*
X441470Y366136D01*
X440136Y369357D01*
X440136Y372843D01*
X441210Y375434D01*
X441223Y375482D01*
X441244Y375527D01*
X441264Y375635D01*
X441293Y375741D01*
X441294Y375791D01*
X441304Y375840D01*
X441297Y375949D01*
X441299Y376059D01*
X441287Y376107D01*
X441284Y376157D01*
X441250Y376261D01*
X441224Y376368D01*
X441201Y376412D01*
X441186Y376459D01*
X441127Y376552D01*
X441076Y376649D01*
X441042Y376686D01*
X441016Y376728D01*
X440936Y376803D01*
X440862Y376885D01*
X440820Y376912D01*
X440784Y376946D01*
X440688Y376999D01*
X440596Y377059D01*
X440549Y377076D01*
X440506Y377100D01*
X440399Y377127D01*
X440295Y377163D01*
X440246Y377167D01*
X440198Y377179D01*
X440037Y377189D01*
X328622Y377189D01*
X326389Y379422D01*
X326389Y489737D01*
X326372Y489874D01*
X326359Y490013D01*
X326352Y490033D01*
X326349Y490053D01*
X326298Y490181D01*
X326251Y490313D01*
X326240Y490329D01*
X326232Y490348D01*
X326151Y490461D01*
X326073Y490576D01*
X326057Y490589D01*
X326046Y490606D01*
X325938Y490694D01*
X325834Y490786D01*
X325816Y490795D01*
X325801Y490808D01*
X325675Y490868D01*
X325551Y490931D01*
X325531Y490935D01*
X325513Y490944D01*
X325377Y490970D01*
X325241Y491001D01*
X325220Y491000D01*
X325201Y491004D01*
X325062Y490995D01*
X324923Y490991D01*
X324903Y490985D01*
X324883Y490984D01*
X324751Y490941D01*
X324617Y490902D01*
X324600Y490892D01*
X324581Y490886D01*
X324463Y490811D01*
X324343Y490741D01*
X324322Y490722D01*
X324312Y490716D01*
X324298Y490701D01*
X324223Y490635D01*
X322061Y488473D01*
X319102Y487247D01*
X315898Y487247D01*
X312939Y488473D01*
X310673Y490739D01*
X309447Y493698D01*
X309447Y496902D01*
X310673Y499861D01*
X312939Y502127D01*
X315898Y503353D01*
X319102Y503353D01*
X322061Y502127D01*
X324223Y499965D01*
X324332Y499880D01*
X324439Y499792D01*
X324458Y499783D01*
X324474Y499771D01*
X324602Y499715D01*
X324727Y499656D01*
X324747Y499652D01*
X324766Y499644D01*
X324904Y499622D01*
X325040Y499596D01*
X325060Y499598D01*
X325080Y499594D01*
X325219Y499607D01*
X325357Y499616D01*
X325376Y499622D01*
X325396Y499624D01*
X325528Y499671D01*
X325659Y499714D01*
X325677Y499725D01*
X325696Y499732D01*
X325811Y499810D01*
X325928Y499884D01*
X325942Y499899D01*
X325959Y499910D01*
X326051Y500015D01*
X326146Y500116D01*
X326156Y500134D01*
X326169Y500149D01*
X326233Y500273D01*
X326300Y500394D01*
X326305Y500414D01*
X326314Y500432D01*
X326344Y500568D01*
X326379Y500702D01*
X326381Y500730D01*
X326384Y500742D01*
X326383Y500763D01*
X326389Y500863D01*
X326389Y565937D01*
X326372Y566074D01*
X326359Y566213D01*
X326352Y566233D01*
X326349Y566253D01*
X326298Y566381D01*
X326251Y566513D01*
X326240Y566529D01*
X326232Y566548D01*
X326151Y566661D01*
X326073Y566776D01*
X326057Y566789D01*
X326046Y566806D01*
X325938Y566894D01*
X325834Y566986D01*
X325816Y566995D01*
X325801Y567008D01*
X325675Y567068D01*
X325551Y567131D01*
X325531Y567135D01*
X325513Y567144D01*
X325377Y567170D01*
X325241Y567201D01*
X325220Y567200D01*
X325201Y567204D01*
X325062Y567195D01*
X324923Y567191D01*
X324903Y567185D01*
X324883Y567184D01*
X324751Y567141D01*
X324617Y567102D01*
X324600Y567092D01*
X324581Y567086D01*
X324463Y567011D01*
X324343Y566941D01*
X324322Y566922D01*
X324312Y566916D01*
X324298Y566901D01*
X324223Y566835D01*
X322061Y564673D01*
X319102Y563447D01*
X315898Y563447D01*
X312939Y564673D01*
X310673Y566939D01*
X309447Y569898D01*
X309447Y573102D01*
X310673Y576061D01*
X312939Y578327D01*
X315898Y579553D01*
X319102Y579553D01*
X322061Y578327D01*
X324223Y576165D01*
X324332Y576080D01*
X324439Y575992D01*
X324458Y575983D01*
X324474Y575971D01*
X324602Y575915D01*
X324727Y575856D01*
X324747Y575852D01*
X324766Y575844D01*
X324904Y575822D01*
X325040Y575796D01*
X325060Y575798D01*
X325080Y575794D01*
X325219Y575807D01*
X325357Y575816D01*
X325376Y575822D01*
X325396Y575824D01*
X325528Y575871D01*
X325659Y575914D01*
X325677Y575925D01*
X325696Y575932D01*
X325811Y576010D01*
X325928Y576084D01*
X325942Y576099D01*
X325959Y576110D01*
X326051Y576215D01*
X326146Y576316D01*
X326156Y576334D01*
X326169Y576349D01*
X326233Y576473D01*
X326300Y576594D01*
X326305Y576614D01*
X326314Y576632D01*
X326344Y576768D01*
X326379Y576902D01*
X326381Y576930D01*
X326384Y576942D01*
X326383Y576963D01*
X326389Y577063D01*
X326389Y585778D01*
X328622Y588011D01*
X357178Y588011D01*
X359411Y585778D01*
X359411Y398780D01*
X359426Y398662D01*
X359433Y398543D01*
X359446Y398505D01*
X359451Y398464D01*
X359494Y398354D01*
X359531Y398241D01*
X359553Y398206D01*
X359568Y398169D01*
X359637Y398073D01*
X359701Y397972D01*
X359731Y397944D01*
X359754Y397911D01*
X359846Y397835D01*
X359933Y397754D01*
X359968Y397734D01*
X359999Y397709D01*
X360107Y397658D01*
X360211Y397600D01*
X360251Y397590D01*
X360287Y397573D01*
X360404Y397551D01*
X360519Y397521D01*
X360579Y397517D01*
X360599Y397513D01*
X360620Y397515D01*
X360680Y397511D01*
X623878Y397511D01*
X626111Y395278D01*
X626111Y381133D01*
X626126Y381015D01*
X626133Y380896D01*
X626146Y380858D01*
X626151Y380817D01*
X626194Y380707D01*
X626231Y380594D01*
X626253Y380559D01*
X626268Y380522D01*
X626337Y380426D01*
X626401Y380325D01*
X626431Y380297D01*
X626454Y380264D01*
X626546Y380188D01*
X626633Y380107D01*
X626668Y380087D01*
X626699Y380062D01*
X626807Y380011D01*
X626911Y379953D01*
X626951Y379943D01*
X626987Y379926D01*
X627104Y379904D01*
X627219Y379874D01*
X627279Y379870D01*
X627299Y379866D01*
X627320Y379868D01*
X627380Y379864D01*
X628443Y379864D01*
X631664Y378530D01*
X634130Y376064D01*
X635464Y372843D01*
X635464Y369357D01*
X634130Y366136D01*
X631664Y363670D01*
X628443Y362336D01*
X627380Y362336D01*
X627262Y362321D01*
X627143Y362314D01*
X627105Y362301D01*
X627064Y362296D01*
X626954Y362253D01*
X626841Y362216D01*
X626806Y362194D01*
X626769Y362179D01*
X626673Y362110D01*
X626572Y362046D01*
X626544Y362016D01*
X626511Y361993D01*
X626435Y361901D01*
X626354Y361814D01*
X626334Y361779D01*
X626309Y361748D01*
X626258Y361640D01*
X626200Y361536D01*
X626190Y361496D01*
X626173Y361460D01*
X626151Y361343D01*
X626121Y361228D01*
X626117Y361168D01*
X626113Y361148D01*
X626115Y361127D01*
X626111Y361067D01*
X626111Y355733D01*
X626126Y355615D01*
X626133Y355496D01*
X626146Y355458D01*
X626151Y355417D01*
X626194Y355307D01*
X626231Y355194D01*
X626253Y355159D01*
X626268Y355122D01*
X626337Y355026D01*
X626401Y354925D01*
X626431Y354897D01*
X626454Y354864D01*
X626546Y354788D01*
X626633Y354707D01*
X626668Y354687D01*
X626699Y354662D01*
X626807Y354611D01*
X626911Y354553D01*
X626951Y354543D01*
X626987Y354526D01*
X627104Y354504D01*
X627219Y354474D01*
X627279Y354470D01*
X627299Y354466D01*
X627320Y354468D01*
X627380Y354464D01*
X628443Y354464D01*
X631664Y353130D01*
X634130Y350664D01*
X635464Y347443D01*
X635464Y343957D01*
X634130Y340736D01*
X631664Y338270D01*
X628443Y336936D01*
X627380Y336936D01*
X627262Y336921D01*
X627143Y336914D01*
X627105Y336901D01*
X627064Y336896D01*
X626954Y336853D01*
X626841Y336816D01*
X626806Y336794D01*
X626769Y336779D01*
X626673Y336710D01*
X626572Y336646D01*
X626544Y336616D01*
X626511Y336593D01*
X626435Y336501D01*
X626354Y336414D01*
X626334Y336379D01*
X626309Y336348D01*
X626258Y336240D01*
X626200Y336136D01*
X626190Y336096D01*
X626173Y336060D01*
X626151Y335943D01*
X626121Y335828D01*
X626117Y335768D01*
X626113Y335748D01*
X626115Y335727D01*
X626111Y335667D01*
X626111Y328622D01*
X623878Y326389D01*
X582622Y326389D01*
G37*
%LPD*%
G36*
X622418Y328946D02*
X622418Y328946D01*
X622537Y328953D01*
X622575Y328966D01*
X622616Y328971D01*
X622726Y329014D01*
X622839Y329051D01*
X622874Y329073D01*
X622911Y329088D01*
X623007Y329158D01*
X623108Y329221D01*
X623136Y329251D01*
X623169Y329274D01*
X623245Y329366D01*
X623326Y329453D01*
X623346Y329488D01*
X623371Y329519D01*
X623422Y329627D01*
X623480Y329731D01*
X623490Y329771D01*
X623507Y329807D01*
X623529Y329924D01*
X623559Y330039D01*
X623563Y330100D01*
X623567Y330120D01*
X623565Y330140D01*
X623569Y330200D01*
X623569Y336663D01*
X623566Y336692D01*
X623568Y336722D01*
X623546Y336850D01*
X623529Y336978D01*
X623519Y337006D01*
X623514Y337035D01*
X623460Y337154D01*
X623412Y337274D01*
X623395Y337298D01*
X623383Y337325D01*
X623302Y337426D01*
X623226Y337532D01*
X623203Y337550D01*
X623184Y337573D01*
X623081Y337651D01*
X622981Y337734D01*
X622954Y337747D01*
X622930Y337765D01*
X622786Y337836D01*
X621736Y338270D01*
X619270Y340736D01*
X617936Y343957D01*
X617936Y347443D01*
X619270Y350664D01*
X621736Y353130D01*
X622786Y353564D01*
X622811Y353579D01*
X622839Y353588D01*
X622949Y353658D01*
X623062Y353722D01*
X623083Y353742D01*
X623108Y353758D01*
X623197Y353853D01*
X623290Y353943D01*
X623306Y353968D01*
X623326Y353990D01*
X623389Y354104D01*
X623457Y354214D01*
X623465Y354243D01*
X623480Y354268D01*
X623512Y354394D01*
X623550Y354518D01*
X623552Y354548D01*
X623559Y354576D01*
X623569Y354737D01*
X623569Y362063D01*
X623566Y362092D01*
X623568Y362122D01*
X623546Y362250D01*
X623529Y362378D01*
X623519Y362406D01*
X623514Y362435D01*
X623460Y362554D01*
X623412Y362674D01*
X623395Y362698D01*
X623383Y362725D01*
X623302Y362826D01*
X623226Y362931D01*
X623203Y362950D01*
X623184Y362973D01*
X623081Y363051D01*
X622981Y363134D01*
X622954Y363147D01*
X622930Y363165D01*
X622786Y363236D01*
X621736Y363670D01*
X619270Y366136D01*
X617936Y369357D01*
X617936Y372843D01*
X619270Y376064D01*
X621736Y378530D01*
X622786Y378964D01*
X622811Y378979D01*
X622839Y378988D01*
X622949Y379058D01*
X623062Y379122D01*
X623083Y379143D01*
X623108Y379158D01*
X623197Y379253D01*
X623290Y379343D01*
X623306Y379368D01*
X623326Y379390D01*
X623389Y379504D01*
X623457Y379614D01*
X623465Y379643D01*
X623480Y379668D01*
X623512Y379794D01*
X623550Y379918D01*
X623552Y379948D01*
X623559Y379976D01*
X623569Y380137D01*
X623569Y393700D01*
X623554Y393818D01*
X623547Y393937D01*
X623534Y393975D01*
X623529Y394016D01*
X623486Y394126D01*
X623449Y394239D01*
X623427Y394274D01*
X623412Y394311D01*
X623343Y394407D01*
X623279Y394508D01*
X623249Y394536D01*
X623226Y394569D01*
X623134Y394645D01*
X623047Y394726D01*
X623012Y394746D01*
X622981Y394771D01*
X622873Y394822D01*
X622769Y394880D01*
X622729Y394890D01*
X622693Y394907D01*
X622576Y394929D01*
X622461Y394959D01*
X622401Y394963D01*
X622381Y394967D01*
X622360Y394965D01*
X622300Y394969D01*
X356869Y394969D01*
X356869Y584200D01*
X356854Y584318D01*
X356847Y584437D01*
X356834Y584475D01*
X356829Y584516D01*
X356786Y584626D01*
X356749Y584739D01*
X356727Y584774D01*
X356712Y584811D01*
X356643Y584907D01*
X356579Y585008D01*
X356549Y585036D01*
X356526Y585069D01*
X356434Y585145D01*
X356347Y585226D01*
X356312Y585246D01*
X356281Y585271D01*
X356173Y585322D01*
X356069Y585380D01*
X356029Y585390D01*
X355993Y585407D01*
X355876Y585429D01*
X355761Y585459D01*
X355701Y585463D01*
X355681Y585467D01*
X355660Y585465D01*
X355600Y585469D01*
X330200Y585469D01*
X330082Y585454D01*
X329963Y585447D01*
X329925Y585434D01*
X329884Y585429D01*
X329774Y585386D01*
X329661Y585349D01*
X329626Y585327D01*
X329589Y585312D01*
X329493Y585243D01*
X329392Y585179D01*
X329364Y585149D01*
X329331Y585126D01*
X329256Y585034D01*
X329174Y584947D01*
X329154Y584912D01*
X329129Y584881D01*
X329078Y584773D01*
X329020Y584669D01*
X329010Y584629D01*
X328993Y584593D01*
X328971Y584476D01*
X328941Y584361D01*
X328937Y584301D01*
X328933Y584281D01*
X328935Y584260D01*
X328931Y584200D01*
X328931Y381000D01*
X328946Y380882D01*
X328953Y380763D01*
X328966Y380725D01*
X328971Y380684D01*
X329014Y380574D01*
X329051Y380461D01*
X329073Y380426D01*
X329088Y380389D01*
X329158Y380293D01*
X329221Y380192D01*
X329251Y380164D01*
X329274Y380131D01*
X329366Y380056D01*
X329453Y379974D01*
X329488Y379954D01*
X329519Y379929D01*
X329627Y379878D01*
X329731Y379820D01*
X329771Y379810D01*
X329807Y379793D01*
X329924Y379771D01*
X330039Y379741D01*
X330100Y379737D01*
X330120Y379733D01*
X330140Y379735D01*
X330200Y379731D01*
X446583Y379731D01*
X446592Y379732D01*
X446602Y379731D01*
X446751Y379752D01*
X446899Y379771D01*
X446907Y379774D01*
X446917Y379775D01*
X447069Y379827D01*
X447157Y379864D01*
X450643Y379864D01*
X450731Y379827D01*
X450740Y379825D01*
X450748Y379820D01*
X450893Y379783D01*
X451038Y379743D01*
X451047Y379743D01*
X451056Y379741D01*
X451217Y379731D01*
X471983Y379731D01*
X471992Y379732D01*
X472002Y379731D01*
X472151Y379752D01*
X472299Y379771D01*
X472307Y379774D01*
X472317Y379775D01*
X472469Y379827D01*
X472557Y379864D01*
X476043Y379864D01*
X476131Y379827D01*
X476140Y379825D01*
X476148Y379820D01*
X476293Y379783D01*
X476438Y379743D01*
X476447Y379743D01*
X476456Y379741D01*
X476617Y379731D01*
X497383Y379731D01*
X497392Y379732D01*
X497402Y379731D01*
X497551Y379752D01*
X497699Y379771D01*
X497707Y379774D01*
X497717Y379775D01*
X497869Y379827D01*
X497957Y379864D01*
X501443Y379864D01*
X501531Y379827D01*
X501540Y379825D01*
X501548Y379820D01*
X501693Y379783D01*
X501838Y379743D01*
X501847Y379743D01*
X501856Y379741D01*
X502017Y379731D01*
X522783Y379731D01*
X522792Y379732D01*
X522802Y379731D01*
X522951Y379752D01*
X523099Y379771D01*
X523107Y379774D01*
X523117Y379775D01*
X523269Y379827D01*
X523357Y379864D01*
X526843Y379864D01*
X526931Y379827D01*
X526940Y379825D01*
X526948Y379820D01*
X527093Y379783D01*
X527238Y379743D01*
X527247Y379743D01*
X527256Y379741D01*
X527417Y379731D01*
X548183Y379731D01*
X548192Y379732D01*
X548202Y379731D01*
X548351Y379752D01*
X548499Y379771D01*
X548507Y379774D01*
X548517Y379775D01*
X548669Y379827D01*
X548757Y379864D01*
X552243Y379864D01*
X552331Y379827D01*
X552340Y379825D01*
X552348Y379820D01*
X552493Y379783D01*
X552638Y379743D01*
X552647Y379743D01*
X552656Y379741D01*
X552817Y379731D01*
X573583Y379731D01*
X573592Y379732D01*
X573602Y379731D01*
X573751Y379752D01*
X573899Y379771D01*
X573907Y379774D01*
X573917Y379775D01*
X574069Y379827D01*
X574157Y379864D01*
X577643Y379864D01*
X577731Y379827D01*
X577740Y379825D01*
X577748Y379820D01*
X577893Y379783D01*
X578038Y379743D01*
X578047Y379743D01*
X578056Y379741D01*
X578217Y379731D01*
X582931Y379731D01*
X582931Y376989D01*
X582943Y376891D01*
X582946Y376792D01*
X582963Y376733D01*
X582971Y376673D01*
X583007Y376581D01*
X583035Y376486D01*
X583065Y376434D01*
X583088Y376378D01*
X583146Y376298D01*
X583196Y376212D01*
X583262Y376137D01*
X583274Y376120D01*
X583284Y376112D01*
X583303Y376091D01*
X583330Y376064D01*
X584664Y372843D01*
X584664Y369357D01*
X583330Y366136D01*
X583303Y366109D01*
X583242Y366030D01*
X583174Y365958D01*
X583145Y365905D01*
X583108Y365857D01*
X583068Y365766D01*
X583020Y365680D01*
X583005Y365621D01*
X582981Y365566D01*
X582966Y365468D01*
X582941Y365372D01*
X582935Y365272D01*
X582931Y365252D01*
X582933Y365239D01*
X582931Y365211D01*
X582931Y351589D01*
X582943Y351491D01*
X582946Y351392D01*
X582963Y351333D01*
X582971Y351273D01*
X583007Y351181D01*
X583035Y351086D01*
X583065Y351034D01*
X583088Y350978D01*
X583146Y350898D01*
X583196Y350812D01*
X583262Y350737D01*
X583274Y350720D01*
X583284Y350712D01*
X583303Y350691D01*
X583330Y350664D01*
X584664Y347443D01*
X584664Y343957D01*
X583330Y340736D01*
X583303Y340709D01*
X583242Y340630D01*
X583174Y340558D01*
X583145Y340505D01*
X583108Y340457D01*
X583068Y340366D01*
X583020Y340280D01*
X583005Y340221D01*
X582981Y340166D01*
X582966Y340068D01*
X582941Y339972D01*
X582935Y339872D01*
X582931Y339852D01*
X582933Y339839D01*
X582931Y339811D01*
X582931Y330200D01*
X582946Y330082D01*
X582953Y329963D01*
X582966Y329925D01*
X582971Y329884D01*
X583014Y329774D01*
X583051Y329661D01*
X583073Y329626D01*
X583088Y329589D01*
X583158Y329493D01*
X583221Y329392D01*
X583251Y329364D01*
X583274Y329331D01*
X583366Y329256D01*
X583453Y329174D01*
X583488Y329154D01*
X583519Y329129D01*
X583627Y329078D01*
X583731Y329020D01*
X583771Y329010D01*
X583807Y328993D01*
X583924Y328971D01*
X584039Y328941D01*
X584100Y328937D01*
X584120Y328933D01*
X584140Y328935D01*
X584200Y328931D01*
X622300Y328931D01*
X622418Y328946D01*
G37*
%LPC*%
G36*
X973226Y700404D02*
X973226Y700404D01*
X964591Y703981D01*
X957981Y710591D01*
X954404Y719226D01*
X954404Y728574D01*
X957981Y737209D01*
X964591Y743819D01*
X973226Y747396D01*
X982574Y747396D01*
X991209Y743819D01*
X997819Y737209D01*
X1001396Y728574D01*
X1001396Y719226D01*
X997819Y710591D01*
X991209Y703981D01*
X982574Y700404D01*
X973226Y700404D01*
G37*
%LPD*%
%LPC*%
G36*
X33426Y700404D02*
X33426Y700404D01*
X24791Y703981D01*
X18181Y710591D01*
X14604Y719226D01*
X14604Y728574D01*
X18181Y737209D01*
X24791Y743819D01*
X33426Y747396D01*
X42774Y747396D01*
X51409Y743819D01*
X58019Y737209D01*
X61596Y728574D01*
X61596Y719226D01*
X58019Y710591D01*
X51409Y703981D01*
X42774Y700404D01*
X33426Y700404D01*
G37*
%LPD*%
%LPC*%
G36*
X973226Y14604D02*
X973226Y14604D01*
X964591Y18181D01*
X957981Y24791D01*
X954404Y33426D01*
X954404Y42774D01*
X957981Y51409D01*
X964591Y58019D01*
X973226Y61596D01*
X982574Y61596D01*
X991209Y58019D01*
X997819Y51409D01*
X1001396Y42774D01*
X1001396Y33426D01*
X997819Y24791D01*
X991209Y18181D01*
X982574Y14604D01*
X973226Y14604D01*
G37*
%LPD*%
%LPC*%
G36*
X33426Y14604D02*
X33426Y14604D01*
X24791Y18181D01*
X18181Y24791D01*
X14604Y33426D01*
X14604Y42774D01*
X18181Y51409D01*
X24791Y58019D01*
X33426Y61596D01*
X42774Y61596D01*
X51409Y58019D01*
X58019Y51409D01*
X61596Y42774D01*
X61596Y33426D01*
X58019Y24791D01*
X51409Y18181D01*
X42774Y14604D01*
X33426Y14604D01*
G37*
%LPD*%
%LPC*%
G36*
X533445Y431959D02*
X533445Y431959D01*
X528836Y433868D01*
X525308Y437396D01*
X523399Y442005D01*
X523399Y446995D01*
X525308Y451604D01*
X528836Y455132D01*
X533445Y457041D01*
X538435Y457041D01*
X543044Y455132D01*
X546572Y451604D01*
X548481Y446995D01*
X548481Y442005D01*
X546572Y437396D01*
X543044Y433868D01*
X538435Y431959D01*
X533445Y431959D01*
G37*
%LPD*%
%LPC*%
G36*
X533445Y660559D02*
X533445Y660559D01*
X528836Y662468D01*
X525308Y665996D01*
X523399Y670605D01*
X523399Y675595D01*
X525308Y680204D01*
X528836Y683732D01*
X533445Y685641D01*
X538435Y685641D01*
X543044Y683732D01*
X546572Y680204D01*
X548481Y675595D01*
X548481Y670605D01*
X546572Y665996D01*
X543044Y662468D01*
X538435Y660559D01*
X533445Y660559D01*
G37*
%LPD*%
%LPC*%
G36*
X96565Y431959D02*
X96565Y431959D01*
X91956Y433868D01*
X88428Y437396D01*
X86519Y442005D01*
X86519Y446995D01*
X88428Y451604D01*
X91956Y455132D01*
X96565Y457041D01*
X101555Y457041D01*
X106164Y455132D01*
X109692Y451604D01*
X111601Y446995D01*
X111601Y442005D01*
X109692Y437396D01*
X106164Y433868D01*
X101555Y431959D01*
X96565Y431959D01*
G37*
%LPD*%
%LPC*%
G36*
X96565Y660559D02*
X96565Y660559D01*
X91956Y662468D01*
X88428Y665996D01*
X86519Y670605D01*
X86519Y675595D01*
X88428Y680204D01*
X91956Y683732D01*
X96565Y685641D01*
X101555Y685641D01*
X106164Y683732D01*
X109692Y680204D01*
X111601Y675595D01*
X111601Y670605D01*
X109692Y665996D01*
X106164Y662468D01*
X101555Y660559D01*
X96565Y660559D01*
G37*
%LPD*%
%LPC*%
G36*
X161645Y115059D02*
X161645Y115059D01*
X157110Y116938D01*
X153638Y120410D01*
X151759Y124945D01*
X151759Y129855D01*
X153638Y134390D01*
X157110Y137862D01*
X161645Y139741D01*
X166555Y139741D01*
X171090Y137862D01*
X174562Y134390D01*
X176441Y129855D01*
X176441Y124945D01*
X174562Y120410D01*
X171090Y116938D01*
X166555Y115059D01*
X161645Y115059D01*
G37*
%LPD*%
%LPC*%
G36*
X161645Y165059D02*
X161645Y165059D01*
X157110Y166938D01*
X153638Y170410D01*
X151759Y174945D01*
X151759Y179855D01*
X153638Y184390D01*
X157110Y187862D01*
X161645Y189741D01*
X166555Y189741D01*
X171090Y187862D01*
X174562Y184390D01*
X176441Y179855D01*
X176441Y174945D01*
X174562Y170410D01*
X171090Y166938D01*
X166555Y165059D01*
X161645Y165059D01*
G37*
%LPD*%
%LPC*%
G36*
X36645Y165059D02*
X36645Y165059D01*
X32110Y166938D01*
X28638Y170410D01*
X26759Y174945D01*
X26759Y179855D01*
X28638Y184390D01*
X32110Y187862D01*
X36645Y189741D01*
X41555Y189741D01*
X46090Y187862D01*
X49562Y184390D01*
X51441Y179855D01*
X51441Y174945D01*
X49562Y170410D01*
X46090Y166938D01*
X41555Y165059D01*
X36645Y165059D01*
G37*
%LPD*%
%LPC*%
G36*
X36645Y115059D02*
X36645Y115059D01*
X32110Y116938D01*
X28638Y120410D01*
X26759Y124945D01*
X26759Y129855D01*
X28638Y134390D01*
X32110Y137862D01*
X36645Y139741D01*
X41555Y139741D01*
X46090Y137862D01*
X49562Y134390D01*
X51441Y129855D01*
X51441Y124945D01*
X49562Y120410D01*
X46090Y116938D01*
X41555Y115059D01*
X36645Y115059D01*
G37*
%LPD*%
%LPC*%
G36*
X274940Y663447D02*
X274940Y663447D01*
X271392Y664917D01*
X268677Y667632D01*
X267207Y671180D01*
X267207Y675020D01*
X268677Y678568D01*
X271392Y681283D01*
X274940Y682753D01*
X278780Y682753D01*
X282328Y681283D01*
X285043Y678568D01*
X286513Y675020D01*
X286513Y671180D01*
X285043Y667632D01*
X282328Y664917D01*
X278780Y663447D01*
X274940Y663447D01*
G37*
%LPD*%
%LPC*%
G36*
X325740Y663447D02*
X325740Y663447D01*
X322192Y664917D01*
X319477Y667632D01*
X318007Y671180D01*
X318007Y675020D01*
X319477Y678568D01*
X322192Y681283D01*
X325740Y682753D01*
X329580Y682753D01*
X333128Y681283D01*
X335843Y678568D01*
X337313Y675020D01*
X337313Y671180D01*
X335843Y667632D01*
X333128Y664917D01*
X329580Y663447D01*
X325740Y663447D01*
G37*
%LPD*%
%LPC*%
G36*
X300340Y663447D02*
X300340Y663447D01*
X296792Y664917D01*
X294077Y667632D01*
X292607Y671180D01*
X292607Y675020D01*
X294077Y678568D01*
X296792Y681283D01*
X300340Y682753D01*
X304180Y682753D01*
X307728Y681283D01*
X310443Y678568D01*
X311913Y675020D01*
X311913Y671180D01*
X310443Y667632D01*
X307728Y664917D01*
X304180Y663447D01*
X300340Y663447D01*
G37*
%LPD*%
%LPC*%
G36*
X50693Y308025D02*
X50693Y308025D01*
X47211Y309468D01*
X44546Y312133D01*
X43103Y315615D01*
X43103Y319385D01*
X44546Y322867D01*
X47211Y325532D01*
X50693Y326975D01*
X54463Y326975D01*
X57945Y325532D01*
X60610Y322867D01*
X62053Y319385D01*
X62053Y315615D01*
X60610Y312133D01*
X57945Y309468D01*
X54463Y308025D01*
X50693Y308025D01*
G37*
%LPD*%
%LPC*%
G36*
X163215Y308025D02*
X163215Y308025D01*
X159733Y309468D01*
X157068Y312133D01*
X155625Y315615D01*
X155625Y319385D01*
X157068Y322867D01*
X159733Y325532D01*
X163215Y326975D01*
X166985Y326975D01*
X170467Y325532D01*
X173132Y322867D01*
X174575Y319385D01*
X174575Y315615D01*
X173132Y312133D01*
X170467Y309468D01*
X166985Y308025D01*
X163215Y308025D01*
G37*
%LPD*%
%LPC*%
G36*
X163215Y333425D02*
X163215Y333425D01*
X159733Y334868D01*
X157068Y337533D01*
X155625Y341015D01*
X155625Y344785D01*
X157068Y348267D01*
X159733Y350932D01*
X163215Y352375D01*
X166985Y352375D01*
X170467Y350932D01*
X173132Y348267D01*
X174575Y344785D01*
X174575Y341015D01*
X173132Y337533D01*
X170467Y334868D01*
X166985Y333425D01*
X163215Y333425D01*
G37*
%LPD*%
%LPC*%
G36*
X50693Y282625D02*
X50693Y282625D01*
X47211Y284068D01*
X44546Y286733D01*
X43103Y290215D01*
X43103Y293985D01*
X44546Y297467D01*
X47211Y300132D01*
X50693Y301575D01*
X54463Y301575D01*
X57945Y300132D01*
X60610Y297467D01*
X62053Y293985D01*
X62053Y290215D01*
X60610Y286733D01*
X57945Y284068D01*
X54463Y282625D01*
X50693Y282625D01*
G37*
%LPD*%
%LPC*%
G36*
X163215Y282625D02*
X163215Y282625D01*
X159733Y284068D01*
X157068Y286733D01*
X155625Y290215D01*
X155625Y293985D01*
X157068Y297467D01*
X159733Y300132D01*
X163215Y301575D01*
X166985Y301575D01*
X170467Y300132D01*
X173132Y297467D01*
X174575Y293985D01*
X174575Y290215D01*
X173132Y286733D01*
X170467Y284068D01*
X166985Y282625D01*
X163215Y282625D01*
G37*
%LPD*%
%LPC*%
G36*
X751957Y336936D02*
X751957Y336936D01*
X748736Y338270D01*
X746270Y340736D01*
X744936Y343957D01*
X744936Y347443D01*
X746270Y350664D01*
X748736Y353130D01*
X751957Y354464D01*
X755443Y354464D01*
X758664Y353130D01*
X761130Y350664D01*
X762464Y347443D01*
X762464Y343957D01*
X761130Y340736D01*
X758664Y338270D01*
X755443Y336936D01*
X751957Y336936D01*
G37*
%LPD*%
%LPC*%
G36*
X650357Y82936D02*
X650357Y82936D01*
X647136Y84270D01*
X644670Y86736D01*
X643336Y89957D01*
X643336Y93443D01*
X644670Y96664D01*
X647136Y99130D01*
X650357Y100464D01*
X653843Y100464D01*
X657064Y99130D01*
X659530Y96664D01*
X660864Y93443D01*
X660864Y89957D01*
X659530Y86736D01*
X657064Y84270D01*
X653843Y82936D01*
X650357Y82936D01*
G37*
%LPD*%
%LPC*%
G36*
X599557Y108336D02*
X599557Y108336D01*
X596336Y109670D01*
X593870Y112136D01*
X592536Y115357D01*
X592536Y118843D01*
X593870Y122064D01*
X596336Y124530D01*
X599557Y125864D01*
X603043Y125864D01*
X606264Y124530D01*
X608730Y122064D01*
X610064Y118843D01*
X610064Y115357D01*
X608730Y112136D01*
X606264Y109670D01*
X603043Y108336D01*
X599557Y108336D01*
G37*
%LPD*%
%LPC*%
G36*
X624957Y108336D02*
X624957Y108336D01*
X621736Y109670D01*
X619270Y112136D01*
X617936Y115357D01*
X617936Y118843D01*
X619270Y122064D01*
X621736Y124530D01*
X624957Y125864D01*
X628443Y125864D01*
X631664Y124530D01*
X634130Y122064D01*
X635464Y118843D01*
X635464Y115357D01*
X634130Y112136D01*
X631664Y109670D01*
X628443Y108336D01*
X624957Y108336D01*
G37*
%LPD*%
%LPC*%
G36*
X447157Y82936D02*
X447157Y82936D01*
X443936Y84270D01*
X441470Y86736D01*
X440136Y89957D01*
X440136Y93443D01*
X441470Y96664D01*
X443936Y99130D01*
X447157Y100464D01*
X450643Y100464D01*
X453864Y99130D01*
X456330Y96664D01*
X457664Y93443D01*
X457664Y89957D01*
X456330Y86736D01*
X453864Y84270D01*
X450643Y82936D01*
X447157Y82936D01*
G37*
%LPD*%
%LPC*%
G36*
X472557Y82936D02*
X472557Y82936D01*
X469336Y84270D01*
X466870Y86736D01*
X465536Y89957D01*
X465536Y93443D01*
X466870Y96664D01*
X469336Y99130D01*
X472557Y100464D01*
X476043Y100464D01*
X479264Y99130D01*
X481730Y96664D01*
X483064Y93443D01*
X483064Y89957D01*
X481730Y86736D01*
X479264Y84270D01*
X476043Y82936D01*
X472557Y82936D01*
G37*
%LPD*%
%LPC*%
G36*
X497957Y82936D02*
X497957Y82936D01*
X494736Y84270D01*
X492270Y86736D01*
X490936Y89957D01*
X490936Y93443D01*
X492270Y96664D01*
X494736Y99130D01*
X497957Y100464D01*
X501443Y100464D01*
X504664Y99130D01*
X507130Y96664D01*
X508464Y93443D01*
X508464Y89957D01*
X507130Y86736D01*
X504664Y84270D01*
X501443Y82936D01*
X497957Y82936D01*
G37*
%LPD*%
%LPC*%
G36*
X523357Y82936D02*
X523357Y82936D01*
X520136Y84270D01*
X517670Y86736D01*
X516336Y89957D01*
X516336Y93443D01*
X517670Y96664D01*
X520136Y99130D01*
X523357Y100464D01*
X526843Y100464D01*
X530064Y99130D01*
X532530Y96664D01*
X533864Y93443D01*
X533864Y89957D01*
X532530Y86736D01*
X530064Y84270D01*
X526843Y82936D01*
X523357Y82936D01*
G37*
%LPD*%
%LPC*%
G36*
X650357Y108336D02*
X650357Y108336D01*
X647136Y109670D01*
X644670Y112136D01*
X643336Y115357D01*
X643336Y118843D01*
X644670Y122064D01*
X647136Y124530D01*
X650357Y125864D01*
X653843Y125864D01*
X657064Y124530D01*
X659530Y122064D01*
X660864Y118843D01*
X660864Y115357D01*
X659530Y112136D01*
X657064Y109670D01*
X653843Y108336D01*
X650357Y108336D01*
G37*
%LPD*%
%LPC*%
G36*
X675757Y108336D02*
X675757Y108336D01*
X672536Y109670D01*
X670070Y112136D01*
X668736Y115357D01*
X668736Y118843D01*
X670070Y122064D01*
X672536Y124530D01*
X675757Y125864D01*
X679243Y125864D01*
X682464Y124530D01*
X684930Y122064D01*
X686264Y118843D01*
X686264Y115357D01*
X684930Y112136D01*
X682464Y109670D01*
X679243Y108336D01*
X675757Y108336D01*
G37*
%LPD*%
%LPC*%
G36*
X701157Y108336D02*
X701157Y108336D01*
X697936Y109670D01*
X695470Y112136D01*
X694136Y115357D01*
X694136Y118843D01*
X695470Y122064D01*
X697936Y124530D01*
X701157Y125864D01*
X704643Y125864D01*
X707864Y124530D01*
X710330Y122064D01*
X711664Y118843D01*
X711664Y115357D01*
X710330Y112136D01*
X707864Y109670D01*
X704643Y108336D01*
X701157Y108336D01*
G37*
%LPD*%
%LPC*%
G36*
X726557Y108336D02*
X726557Y108336D01*
X723336Y109670D01*
X720870Y112136D01*
X719536Y115357D01*
X719536Y118843D01*
X720870Y122064D01*
X723336Y124530D01*
X726557Y125864D01*
X730043Y125864D01*
X733264Y124530D01*
X735730Y122064D01*
X737064Y118843D01*
X737064Y115357D01*
X735730Y112136D01*
X733264Y109670D01*
X730043Y108336D01*
X726557Y108336D01*
G37*
%LPD*%
%LPC*%
G36*
X751957Y108336D02*
X751957Y108336D01*
X748736Y109670D01*
X746270Y112136D01*
X744936Y115357D01*
X744936Y118843D01*
X746270Y122064D01*
X748736Y124530D01*
X751957Y125864D01*
X755443Y125864D01*
X758664Y124530D01*
X761130Y122064D01*
X762464Y118843D01*
X762464Y115357D01*
X761130Y112136D01*
X758664Y109670D01*
X755443Y108336D01*
X751957Y108336D01*
G37*
%LPD*%
%LPC*%
G36*
X777357Y108336D02*
X777357Y108336D01*
X774136Y109670D01*
X771670Y112136D01*
X770336Y115357D01*
X770336Y118843D01*
X771670Y122064D01*
X774136Y124530D01*
X777357Y125864D01*
X780843Y125864D01*
X784064Y124530D01*
X786530Y122064D01*
X787864Y118843D01*
X787864Y115357D01*
X786530Y112136D01*
X784064Y109670D01*
X780843Y108336D01*
X777357Y108336D01*
G37*
%LPD*%
%LPC*%
G36*
X802757Y108336D02*
X802757Y108336D01*
X799536Y109670D01*
X797070Y112136D01*
X795736Y115357D01*
X795736Y118843D01*
X797070Y122064D01*
X799536Y124530D01*
X802757Y125864D01*
X806243Y125864D01*
X809464Y124530D01*
X811930Y122064D01*
X813264Y118843D01*
X813264Y115357D01*
X811930Y112136D01*
X809464Y109670D01*
X806243Y108336D01*
X802757Y108336D01*
G37*
%LPD*%
%LPC*%
G36*
X828157Y108336D02*
X828157Y108336D01*
X824936Y109670D01*
X822470Y112136D01*
X821136Y115357D01*
X821136Y118843D01*
X822470Y122064D01*
X824936Y124530D01*
X828157Y125864D01*
X831643Y125864D01*
X834864Y124530D01*
X837330Y122064D01*
X838664Y118843D01*
X838664Y115357D01*
X837330Y112136D01*
X834864Y109670D01*
X831643Y108336D01*
X828157Y108336D01*
G37*
%LPD*%
%LPC*%
G36*
X853557Y108336D02*
X853557Y108336D01*
X850336Y109670D01*
X847870Y112136D01*
X846536Y115357D01*
X846536Y118843D01*
X847870Y122064D01*
X850336Y124530D01*
X853557Y125864D01*
X857043Y125864D01*
X860264Y124530D01*
X862730Y122064D01*
X864064Y118843D01*
X864064Y115357D01*
X862730Y112136D01*
X860264Y109670D01*
X857043Y108336D01*
X853557Y108336D01*
G37*
%LPD*%
%LPC*%
G36*
X878957Y108336D02*
X878957Y108336D01*
X875736Y109670D01*
X873270Y112136D01*
X871936Y115357D01*
X871936Y118843D01*
X873270Y122064D01*
X875736Y124530D01*
X878957Y125864D01*
X882443Y125864D01*
X885664Y124530D01*
X888130Y122064D01*
X889464Y118843D01*
X889464Y115357D01*
X888130Y112136D01*
X885664Y109670D01*
X882443Y108336D01*
X878957Y108336D01*
G37*
%LPD*%
%LPC*%
G36*
X548757Y108336D02*
X548757Y108336D01*
X545536Y109670D01*
X543070Y112136D01*
X541736Y115357D01*
X541736Y118843D01*
X543070Y122064D01*
X545536Y124530D01*
X548757Y125864D01*
X552243Y125864D01*
X555464Y124530D01*
X557930Y122064D01*
X559264Y118843D01*
X559264Y115357D01*
X557930Y112136D01*
X555464Y109670D01*
X552243Y108336D01*
X548757Y108336D01*
G37*
%LPD*%
%LPC*%
G36*
X212357Y398936D02*
X212357Y398936D01*
X209136Y400270D01*
X206670Y402736D01*
X205336Y405957D01*
X205336Y409443D01*
X206670Y412664D01*
X209136Y415130D01*
X212357Y416464D01*
X215843Y416464D01*
X219064Y415130D01*
X221530Y412664D01*
X222864Y409443D01*
X222864Y405957D01*
X221530Y402736D01*
X219064Y400270D01*
X215843Y398936D01*
X212357Y398936D01*
G37*
%LPD*%
%LPC*%
G36*
X548757Y82936D02*
X548757Y82936D01*
X545536Y84270D01*
X543070Y86736D01*
X541736Y89957D01*
X541736Y93443D01*
X543070Y96664D01*
X545536Y99130D01*
X548757Y100464D01*
X552243Y100464D01*
X555464Y99130D01*
X557930Y96664D01*
X559264Y93443D01*
X559264Y89957D01*
X557930Y86736D01*
X555464Y84270D01*
X552243Y82936D01*
X548757Y82936D01*
G37*
%LPD*%
%LPC*%
G36*
X574157Y82936D02*
X574157Y82936D01*
X570936Y84270D01*
X568470Y86736D01*
X567136Y89957D01*
X567136Y93443D01*
X568470Y96664D01*
X570936Y99130D01*
X574157Y100464D01*
X577643Y100464D01*
X580864Y99130D01*
X583330Y96664D01*
X584664Y93443D01*
X584664Y89957D01*
X583330Y86736D01*
X580864Y84270D01*
X577643Y82936D01*
X574157Y82936D01*
G37*
%LPD*%
%LPC*%
G36*
X599557Y82936D02*
X599557Y82936D01*
X596336Y84270D01*
X593870Y86736D01*
X592536Y89957D01*
X592536Y93443D01*
X593870Y96664D01*
X596336Y99130D01*
X599557Y100464D01*
X603043Y100464D01*
X606264Y99130D01*
X608730Y96664D01*
X610064Y93443D01*
X610064Y89957D01*
X608730Y86736D01*
X606264Y84270D01*
X603043Y82936D01*
X599557Y82936D01*
G37*
%LPD*%
%LPC*%
G36*
X624957Y82936D02*
X624957Y82936D01*
X621736Y84270D01*
X619270Y86736D01*
X617936Y89957D01*
X617936Y93443D01*
X619270Y96664D01*
X621736Y99130D01*
X624957Y100464D01*
X628443Y100464D01*
X631664Y99130D01*
X634130Y96664D01*
X635464Y93443D01*
X635464Y89957D01*
X634130Y86736D01*
X631664Y84270D01*
X628443Y82936D01*
X624957Y82936D01*
G37*
%LPD*%
%LPC*%
G36*
X701157Y362336D02*
X701157Y362336D01*
X697936Y363670D01*
X695470Y366136D01*
X694136Y369357D01*
X694136Y372843D01*
X695470Y376064D01*
X697936Y378530D01*
X701157Y379864D01*
X704643Y379864D01*
X707864Y378530D01*
X710330Y376064D01*
X711664Y372843D01*
X711664Y369357D01*
X710330Y366136D01*
X707864Y363670D01*
X704643Y362336D01*
X701157Y362336D01*
G37*
%LPD*%
%LPC*%
G36*
X675757Y362336D02*
X675757Y362336D01*
X672536Y363670D01*
X670070Y366136D01*
X668736Y369357D01*
X668736Y372843D01*
X670070Y376064D01*
X672536Y378530D01*
X675757Y379864D01*
X679243Y379864D01*
X682464Y378530D01*
X684930Y376064D01*
X686264Y372843D01*
X686264Y369357D01*
X684930Y366136D01*
X682464Y363670D01*
X679243Y362336D01*
X675757Y362336D01*
G37*
%LPD*%
%LPC*%
G36*
X599557Y362336D02*
X599557Y362336D01*
X596336Y363670D01*
X593870Y366136D01*
X592536Y369357D01*
X592536Y372843D01*
X593870Y376064D01*
X596336Y378530D01*
X599557Y379864D01*
X603043Y379864D01*
X606264Y378530D01*
X608730Y376064D01*
X610064Y372843D01*
X610064Y369357D01*
X608730Y366136D01*
X606264Y363670D01*
X603043Y362336D01*
X599557Y362336D01*
G37*
%LPD*%
%LPC*%
G36*
X726557Y362336D02*
X726557Y362336D01*
X723336Y363670D01*
X720870Y366136D01*
X719536Y369357D01*
X719536Y372843D01*
X720870Y376064D01*
X723336Y378530D01*
X726557Y379864D01*
X730043Y379864D01*
X733264Y378530D01*
X735730Y376064D01*
X737064Y372843D01*
X737064Y369357D01*
X735730Y366136D01*
X733264Y363670D01*
X730043Y362336D01*
X726557Y362336D01*
G37*
%LPD*%
%LPC*%
G36*
X650357Y362336D02*
X650357Y362336D01*
X647136Y363670D01*
X644670Y366136D01*
X643336Y369357D01*
X643336Y372843D01*
X644670Y376064D01*
X647136Y378530D01*
X650357Y379864D01*
X653843Y379864D01*
X657064Y378530D01*
X659530Y376064D01*
X660864Y372843D01*
X660864Y369357D01*
X659530Y366136D01*
X657064Y363670D01*
X653843Y362336D01*
X650357Y362336D01*
G37*
%LPD*%
%LPC*%
G36*
X878957Y362336D02*
X878957Y362336D01*
X875736Y363670D01*
X873270Y366136D01*
X871936Y369357D01*
X871936Y372843D01*
X873270Y376064D01*
X875736Y378530D01*
X878957Y379864D01*
X882443Y379864D01*
X885664Y378530D01*
X888130Y376064D01*
X889464Y372843D01*
X889464Y369357D01*
X888130Y366136D01*
X885664Y363670D01*
X882443Y362336D01*
X878957Y362336D01*
G37*
%LPD*%
%LPC*%
G36*
X853557Y362336D02*
X853557Y362336D01*
X850336Y363670D01*
X847870Y366136D01*
X846536Y369357D01*
X846536Y372843D01*
X847870Y376064D01*
X850336Y378530D01*
X853557Y379864D01*
X857043Y379864D01*
X860264Y378530D01*
X862730Y376064D01*
X864064Y372843D01*
X864064Y369357D01*
X862730Y366136D01*
X860264Y363670D01*
X857043Y362336D01*
X853557Y362336D01*
G37*
%LPD*%
%LPC*%
G36*
X828157Y362336D02*
X828157Y362336D01*
X824936Y363670D01*
X822470Y366136D01*
X821136Y369357D01*
X821136Y372843D01*
X822470Y376064D01*
X824936Y378530D01*
X828157Y379864D01*
X831643Y379864D01*
X834864Y378530D01*
X837330Y376064D01*
X838664Y372843D01*
X838664Y369357D01*
X837330Y366136D01*
X834864Y363670D01*
X831643Y362336D01*
X828157Y362336D01*
G37*
%LPD*%
%LPC*%
G36*
X802757Y362336D02*
X802757Y362336D01*
X799536Y363670D01*
X797070Y366136D01*
X795736Y369357D01*
X795736Y372843D01*
X797070Y376064D01*
X799536Y378530D01*
X802757Y379864D01*
X806243Y379864D01*
X809464Y378530D01*
X811930Y376064D01*
X813264Y372843D01*
X813264Y369357D01*
X811930Y366136D01*
X809464Y363670D01*
X806243Y362336D01*
X802757Y362336D01*
G37*
%LPD*%
%LPC*%
G36*
X751957Y362336D02*
X751957Y362336D01*
X748736Y363670D01*
X746270Y366136D01*
X744936Y369357D01*
X744936Y372843D01*
X746270Y376064D01*
X748736Y378530D01*
X751957Y379864D01*
X755443Y379864D01*
X758664Y378530D01*
X761130Y376064D01*
X762464Y372843D01*
X762464Y369357D01*
X761130Y366136D01*
X758664Y363670D01*
X755443Y362336D01*
X751957Y362336D01*
G37*
%LPD*%
%LPC*%
G36*
X777357Y362336D02*
X777357Y362336D01*
X774136Y363670D01*
X771670Y366136D01*
X770336Y369357D01*
X770336Y372843D01*
X771670Y376064D01*
X774136Y378530D01*
X777357Y379864D01*
X780843Y379864D01*
X784064Y378530D01*
X786530Y376064D01*
X787864Y372843D01*
X787864Y369357D01*
X786530Y366136D01*
X784064Y363670D01*
X780843Y362336D01*
X777357Y362336D01*
G37*
%LPD*%
%LPC*%
G36*
X497957Y336936D02*
X497957Y336936D01*
X494736Y338270D01*
X492270Y340736D01*
X490936Y343957D01*
X490936Y347443D01*
X492270Y350664D01*
X494736Y353130D01*
X497957Y354464D01*
X501443Y354464D01*
X504664Y353130D01*
X507130Y350664D01*
X508464Y347443D01*
X508464Y343957D01*
X507130Y340736D01*
X504664Y338270D01*
X501443Y336936D01*
X497957Y336936D01*
G37*
%LPD*%
%LPC*%
G36*
X523357Y336936D02*
X523357Y336936D01*
X520136Y338270D01*
X517670Y340736D01*
X516336Y343957D01*
X516336Y347443D01*
X517670Y350664D01*
X520136Y353130D01*
X523357Y354464D01*
X526843Y354464D01*
X530064Y353130D01*
X532530Y350664D01*
X533864Y347443D01*
X533864Y343957D01*
X532530Y340736D01*
X530064Y338270D01*
X526843Y336936D01*
X523357Y336936D01*
G37*
%LPD*%
%LPC*%
G36*
X447157Y336936D02*
X447157Y336936D01*
X443936Y338270D01*
X441470Y340736D01*
X440136Y343957D01*
X440136Y347443D01*
X441470Y350664D01*
X443936Y353130D01*
X447157Y354464D01*
X450643Y354464D01*
X453864Y353130D01*
X456330Y350664D01*
X457664Y347443D01*
X457664Y343957D01*
X456330Y340736D01*
X453864Y338270D01*
X450643Y336936D01*
X447157Y336936D01*
G37*
%LPD*%
%LPC*%
G36*
X472557Y336936D02*
X472557Y336936D01*
X469336Y338270D01*
X466870Y340736D01*
X465536Y343957D01*
X465536Y347443D01*
X466870Y350664D01*
X469336Y353130D01*
X472557Y354464D01*
X476043Y354464D01*
X479264Y353130D01*
X481730Y350664D01*
X483064Y347443D01*
X483064Y343957D01*
X481730Y340736D01*
X479264Y338270D01*
X476043Y336936D01*
X472557Y336936D01*
G37*
%LPD*%
%LPC*%
G36*
X548757Y336936D02*
X548757Y336936D01*
X545536Y338270D01*
X543070Y340736D01*
X541736Y343957D01*
X541736Y347443D01*
X543070Y350664D01*
X545536Y353130D01*
X548757Y354464D01*
X552243Y354464D01*
X555464Y353130D01*
X557930Y350664D01*
X559264Y347443D01*
X559264Y343957D01*
X557930Y340736D01*
X555464Y338270D01*
X552243Y336936D01*
X548757Y336936D01*
G37*
%LPD*%
%LPC*%
G36*
X650357Y336936D02*
X650357Y336936D01*
X647136Y338270D01*
X644670Y340736D01*
X643336Y343957D01*
X643336Y347443D01*
X644670Y350664D01*
X647136Y353130D01*
X650357Y354464D01*
X653843Y354464D01*
X657064Y353130D01*
X659530Y350664D01*
X660864Y347443D01*
X660864Y343957D01*
X659530Y340736D01*
X657064Y338270D01*
X653843Y336936D01*
X650357Y336936D01*
G37*
%LPD*%
%LPC*%
G36*
X675757Y336936D02*
X675757Y336936D01*
X672536Y338270D01*
X670070Y340736D01*
X668736Y343957D01*
X668736Y347443D01*
X670070Y350664D01*
X672536Y353130D01*
X675757Y354464D01*
X679243Y354464D01*
X682464Y353130D01*
X684930Y350664D01*
X686264Y347443D01*
X686264Y343957D01*
X684930Y340736D01*
X682464Y338270D01*
X679243Y336936D01*
X675757Y336936D01*
G37*
%LPD*%
%LPC*%
G36*
X701157Y336936D02*
X701157Y336936D01*
X697936Y338270D01*
X695470Y340736D01*
X694136Y343957D01*
X694136Y347443D01*
X695470Y350664D01*
X697936Y353130D01*
X701157Y354464D01*
X704643Y354464D01*
X707864Y353130D01*
X710330Y350664D01*
X711664Y347443D01*
X711664Y343957D01*
X710330Y340736D01*
X707864Y338270D01*
X704643Y336936D01*
X701157Y336936D01*
G37*
%LPD*%
%LPC*%
G36*
X574157Y108336D02*
X574157Y108336D01*
X570936Y109670D01*
X568470Y112136D01*
X567136Y115357D01*
X567136Y118843D01*
X568470Y122064D01*
X570936Y124530D01*
X574157Y125864D01*
X577643Y125864D01*
X580864Y124530D01*
X583330Y122064D01*
X584664Y118843D01*
X584664Y115357D01*
X583330Y112136D01*
X580864Y109670D01*
X577643Y108336D01*
X574157Y108336D01*
G37*
%LPD*%
%LPC*%
G36*
X802757Y336936D02*
X802757Y336936D01*
X799536Y338270D01*
X797070Y340736D01*
X795736Y343957D01*
X795736Y347443D01*
X797070Y350664D01*
X799536Y353130D01*
X802757Y354464D01*
X806243Y354464D01*
X809464Y353130D01*
X811930Y350664D01*
X813264Y347443D01*
X813264Y343957D01*
X811930Y340736D01*
X809464Y338270D01*
X806243Y336936D01*
X802757Y336936D01*
G37*
%LPD*%
%LPC*%
G36*
X878957Y336936D02*
X878957Y336936D01*
X875736Y338270D01*
X873270Y340736D01*
X871936Y343957D01*
X871936Y347443D01*
X873270Y350664D01*
X875736Y353130D01*
X878957Y354464D01*
X882443Y354464D01*
X885664Y353130D01*
X888130Y350664D01*
X889464Y347443D01*
X889464Y343957D01*
X888130Y340736D01*
X885664Y338270D01*
X882443Y336936D01*
X878957Y336936D01*
G37*
%LPD*%
%LPC*%
G36*
X853557Y336936D02*
X853557Y336936D01*
X850336Y338270D01*
X847870Y340736D01*
X846536Y343957D01*
X846536Y347443D01*
X847870Y350664D01*
X850336Y353130D01*
X853557Y354464D01*
X857043Y354464D01*
X860264Y353130D01*
X862730Y350664D01*
X864064Y347443D01*
X864064Y343957D01*
X862730Y340736D01*
X860264Y338270D01*
X857043Y336936D01*
X853557Y336936D01*
G37*
%LPD*%
%LPC*%
G36*
X828157Y336936D02*
X828157Y336936D01*
X824936Y338270D01*
X822470Y340736D01*
X821136Y343957D01*
X821136Y347443D01*
X822470Y350664D01*
X824936Y353130D01*
X828157Y354464D01*
X831643Y354464D01*
X834864Y353130D01*
X837330Y350664D01*
X838664Y347443D01*
X838664Y343957D01*
X837330Y340736D01*
X834864Y338270D01*
X831643Y336936D01*
X828157Y336936D01*
G37*
%LPD*%
%LPC*%
G36*
X777357Y336936D02*
X777357Y336936D01*
X774136Y338270D01*
X771670Y340736D01*
X770336Y343957D01*
X770336Y347443D01*
X771670Y350664D01*
X774136Y353130D01*
X777357Y354464D01*
X780843Y354464D01*
X784064Y353130D01*
X786530Y350664D01*
X787864Y347443D01*
X787864Y343957D01*
X786530Y340736D01*
X784064Y338270D01*
X780843Y336936D01*
X777357Y336936D01*
G37*
%LPD*%
%LPC*%
G36*
X675757Y82936D02*
X675757Y82936D01*
X672536Y84270D01*
X670070Y86736D01*
X668736Y89957D01*
X668736Y93443D01*
X670070Y96664D01*
X672536Y99130D01*
X675757Y100464D01*
X679243Y100464D01*
X682464Y99130D01*
X684930Y96664D01*
X686264Y93443D01*
X686264Y89957D01*
X684930Y86736D01*
X682464Y84270D01*
X679243Y82936D01*
X675757Y82936D01*
G37*
%LPD*%
%LPC*%
G36*
X701157Y82936D02*
X701157Y82936D01*
X697936Y84270D01*
X695470Y86736D01*
X694136Y89957D01*
X694136Y93443D01*
X695470Y96664D01*
X697936Y99130D01*
X701157Y100464D01*
X704643Y100464D01*
X707864Y99130D01*
X710330Y96664D01*
X711664Y93443D01*
X711664Y89957D01*
X710330Y86736D01*
X707864Y84270D01*
X704643Y82936D01*
X701157Y82936D01*
G37*
%LPD*%
%LPC*%
G36*
X726557Y82936D02*
X726557Y82936D01*
X723336Y84270D01*
X720870Y86736D01*
X719536Y89957D01*
X719536Y93443D01*
X720870Y96664D01*
X723336Y99130D01*
X726557Y100464D01*
X730043Y100464D01*
X733264Y99130D01*
X735730Y96664D01*
X737064Y93443D01*
X737064Y89957D01*
X735730Y86736D01*
X733264Y84270D01*
X730043Y82936D01*
X726557Y82936D01*
G37*
%LPD*%
%LPC*%
G36*
X751957Y82936D02*
X751957Y82936D01*
X748736Y84270D01*
X746270Y86736D01*
X744936Y89957D01*
X744936Y93443D01*
X746270Y96664D01*
X748736Y99130D01*
X751957Y100464D01*
X755443Y100464D01*
X758664Y99130D01*
X761130Y96664D01*
X762464Y93443D01*
X762464Y89957D01*
X761130Y86736D01*
X758664Y84270D01*
X755443Y82936D01*
X751957Y82936D01*
G37*
%LPD*%
%LPC*%
G36*
X472557Y108336D02*
X472557Y108336D01*
X469336Y109670D01*
X466870Y112136D01*
X465536Y115357D01*
X465536Y118843D01*
X466870Y122064D01*
X469336Y124530D01*
X472557Y125864D01*
X476043Y125864D01*
X479264Y124530D01*
X481730Y122064D01*
X483064Y118843D01*
X483064Y115357D01*
X481730Y112136D01*
X479264Y109670D01*
X476043Y108336D01*
X472557Y108336D01*
G37*
%LPD*%
%LPC*%
G36*
X939357Y662536D02*
X939357Y662536D01*
X936136Y663870D01*
X933670Y666336D01*
X932336Y669557D01*
X932336Y673043D01*
X933670Y676264D01*
X936136Y678730D01*
X939357Y680064D01*
X942843Y680064D01*
X946064Y678730D01*
X948530Y676264D01*
X949864Y673043D01*
X949864Y669557D01*
X948530Y666336D01*
X946064Y663870D01*
X942843Y662536D01*
X939357Y662536D01*
G37*
%LPD*%
%LPC*%
G36*
X777357Y82936D02*
X777357Y82936D01*
X774136Y84270D01*
X771670Y86736D01*
X770336Y89957D01*
X770336Y93443D01*
X771670Y96664D01*
X774136Y99130D01*
X777357Y100464D01*
X780843Y100464D01*
X784064Y99130D01*
X786530Y96664D01*
X787864Y93443D01*
X787864Y89957D01*
X786530Y86736D01*
X784064Y84270D01*
X780843Y82936D01*
X777357Y82936D01*
G37*
%LPD*%
%LPC*%
G36*
X447157Y108336D02*
X447157Y108336D01*
X443936Y109670D01*
X441470Y112136D01*
X440136Y115357D01*
X440136Y118843D01*
X441470Y122064D01*
X443936Y124530D01*
X447157Y125864D01*
X450643Y125864D01*
X453864Y124530D01*
X456330Y122064D01*
X457664Y118843D01*
X457664Y115357D01*
X456330Y112136D01*
X453864Y109670D01*
X450643Y108336D01*
X447157Y108336D01*
G37*
%LPD*%
%LPC*%
G36*
X802757Y82936D02*
X802757Y82936D01*
X799536Y84270D01*
X797070Y86736D01*
X795736Y89957D01*
X795736Y93443D01*
X797070Y96664D01*
X799536Y99130D01*
X802757Y100464D01*
X806243Y100464D01*
X809464Y99130D01*
X811930Y96664D01*
X813264Y93443D01*
X813264Y89957D01*
X811930Y86736D01*
X809464Y84270D01*
X806243Y82936D01*
X802757Y82936D01*
G37*
%LPD*%
%LPC*%
G36*
X828157Y82936D02*
X828157Y82936D01*
X824936Y84270D01*
X822470Y86736D01*
X821136Y89957D01*
X821136Y93443D01*
X822470Y96664D01*
X824936Y99130D01*
X828157Y100464D01*
X831643Y100464D01*
X834864Y99130D01*
X837330Y96664D01*
X838664Y93443D01*
X838664Y89957D01*
X837330Y86736D01*
X834864Y84270D01*
X831643Y82936D01*
X828157Y82936D01*
G37*
%LPD*%
%LPC*%
G36*
X878957Y82936D02*
X878957Y82936D01*
X875736Y84270D01*
X873270Y86736D01*
X871936Y89957D01*
X871936Y93443D01*
X873270Y96664D01*
X875736Y99130D01*
X878957Y100464D01*
X882443Y100464D01*
X885664Y99130D01*
X888130Y96664D01*
X889464Y93443D01*
X889464Y89957D01*
X888130Y86736D01*
X885664Y84270D01*
X882443Y82936D01*
X878957Y82936D01*
G37*
%LPD*%
%LPC*%
G36*
X853557Y82936D02*
X853557Y82936D01*
X850336Y84270D01*
X847870Y86736D01*
X846536Y89957D01*
X846536Y93443D01*
X847870Y96664D01*
X850336Y99130D01*
X853557Y100464D01*
X857043Y100464D01*
X860264Y99130D01*
X862730Y96664D01*
X864064Y93443D01*
X864064Y89957D01*
X862730Y86736D01*
X860264Y84270D01*
X857043Y82936D01*
X853557Y82936D01*
G37*
%LPD*%
%LPC*%
G36*
X497957Y108336D02*
X497957Y108336D01*
X494736Y109670D01*
X492270Y112136D01*
X490936Y115357D01*
X490936Y118843D01*
X492270Y122064D01*
X494736Y124530D01*
X497957Y125864D01*
X501443Y125864D01*
X504664Y124530D01*
X507130Y122064D01*
X508464Y118843D01*
X508464Y115357D01*
X507130Y112136D01*
X504664Y109670D01*
X501443Y108336D01*
X497957Y108336D01*
G37*
%LPD*%
%LPC*%
G36*
X523357Y108336D02*
X523357Y108336D01*
X520136Y109670D01*
X517670Y112136D01*
X516336Y115357D01*
X516336Y118843D01*
X517670Y122064D01*
X520136Y124530D01*
X523357Y125864D01*
X526843Y125864D01*
X530064Y124530D01*
X532530Y122064D01*
X533864Y118843D01*
X533864Y115357D01*
X532530Y112136D01*
X530064Y109670D01*
X526843Y108336D01*
X523357Y108336D01*
G37*
%LPD*%
%LPC*%
G36*
X214298Y563447D02*
X214298Y563447D01*
X211339Y564673D01*
X209073Y566939D01*
X207847Y569898D01*
X207847Y573102D01*
X209073Y576061D01*
X211339Y578327D01*
X214298Y579553D01*
X217502Y579553D01*
X220461Y578327D01*
X222727Y576061D01*
X223953Y573102D01*
X223953Y569898D01*
X222727Y566939D01*
X220461Y564673D01*
X217502Y563447D01*
X214298Y563447D01*
G37*
%LPD*%
%LPC*%
G36*
X290498Y563447D02*
X290498Y563447D01*
X287539Y564673D01*
X285273Y566939D01*
X284047Y569898D01*
X284047Y573102D01*
X285273Y576061D01*
X287539Y578327D01*
X290498Y579553D01*
X293702Y579553D01*
X296661Y578327D01*
X298927Y576061D01*
X300153Y573102D01*
X300153Y569898D01*
X298927Y566939D01*
X296661Y564673D01*
X293702Y563447D01*
X290498Y563447D01*
G37*
%LPD*%
%LPC*%
G36*
X265098Y563447D02*
X265098Y563447D01*
X262139Y564673D01*
X259873Y566939D01*
X258647Y569898D01*
X258647Y573102D01*
X259873Y576061D01*
X262139Y578327D01*
X265098Y579553D01*
X268302Y579553D01*
X271261Y578327D01*
X273527Y576061D01*
X274753Y573102D01*
X274753Y569898D01*
X273527Y566939D01*
X271261Y564673D01*
X268302Y563447D01*
X265098Y563447D01*
G37*
%LPD*%
%LPC*%
G36*
X188898Y563447D02*
X188898Y563447D01*
X185939Y564673D01*
X183673Y566939D01*
X182447Y569898D01*
X182447Y573102D01*
X183673Y576061D01*
X185939Y578327D01*
X188898Y579553D01*
X192102Y579553D01*
X195061Y578327D01*
X197327Y576061D01*
X198553Y573102D01*
X198553Y569898D01*
X197327Y566939D01*
X195061Y564673D01*
X192102Y563447D01*
X188898Y563447D01*
G37*
%LPD*%
%LPC*%
G36*
X188898Y487247D02*
X188898Y487247D01*
X185939Y488473D01*
X183673Y490739D01*
X182447Y493698D01*
X182447Y496902D01*
X183673Y499861D01*
X185939Y502127D01*
X188898Y503353D01*
X192102Y503353D01*
X195061Y502127D01*
X197327Y499861D01*
X198553Y496902D01*
X198553Y493698D01*
X197327Y490739D01*
X195061Y488473D01*
X192102Y487247D01*
X188898Y487247D01*
G37*
%LPD*%
%LPC*%
G36*
X341298Y487247D02*
X341298Y487247D01*
X338339Y488473D01*
X336073Y490739D01*
X334847Y493698D01*
X334847Y496902D01*
X336073Y499861D01*
X338339Y502127D01*
X341298Y503353D01*
X344502Y503353D01*
X347461Y502127D01*
X349727Y499861D01*
X350953Y496902D01*
X350953Y493698D01*
X349727Y490739D01*
X347461Y488473D01*
X344502Y487247D01*
X341298Y487247D01*
G37*
%LPD*%
%LPC*%
G36*
X138098Y487247D02*
X138098Y487247D01*
X135139Y488473D01*
X132873Y490739D01*
X131647Y493698D01*
X131647Y496902D01*
X132873Y499861D01*
X135139Y502127D01*
X138098Y503353D01*
X141302Y503353D01*
X144261Y502127D01*
X146527Y499861D01*
X147753Y496902D01*
X147753Y493698D01*
X146527Y490739D01*
X144261Y488473D01*
X141302Y487247D01*
X138098Y487247D01*
G37*
%LPD*%
%LPC*%
G36*
X163498Y487247D02*
X163498Y487247D01*
X160539Y488473D01*
X158273Y490739D01*
X157047Y493698D01*
X157047Y496902D01*
X158273Y499861D01*
X160539Y502127D01*
X163498Y503353D01*
X166702Y503353D01*
X169661Y502127D01*
X171927Y499861D01*
X173153Y496902D01*
X173153Y493698D01*
X171927Y490739D01*
X169661Y488473D01*
X166702Y487247D01*
X163498Y487247D01*
G37*
%LPD*%
%LPC*%
G36*
X163498Y563447D02*
X163498Y563447D01*
X160539Y564673D01*
X158273Y566939D01*
X157047Y569898D01*
X157047Y573102D01*
X158273Y576061D01*
X160539Y578327D01*
X163498Y579553D01*
X166702Y579553D01*
X169661Y578327D01*
X171927Y576061D01*
X173153Y573102D01*
X173153Y569898D01*
X171927Y566939D01*
X169661Y564673D01*
X166702Y563447D01*
X163498Y563447D01*
G37*
%LPD*%
%LPC*%
G36*
X138098Y563447D02*
X138098Y563447D01*
X135139Y564673D01*
X132873Y566939D01*
X131647Y569898D01*
X131647Y573102D01*
X132873Y576061D01*
X135139Y578327D01*
X138098Y579553D01*
X141302Y579553D01*
X144261Y578327D01*
X146527Y576061D01*
X147753Y573102D01*
X147753Y569898D01*
X146527Y566939D01*
X144261Y564673D01*
X141302Y563447D01*
X138098Y563447D01*
G37*
%LPD*%
%LPC*%
G36*
X239698Y563447D02*
X239698Y563447D01*
X236739Y564673D01*
X234473Y566939D01*
X233247Y569898D01*
X233247Y573102D01*
X234473Y576061D01*
X236739Y578327D01*
X239698Y579553D01*
X242902Y579553D01*
X245861Y578327D01*
X248127Y576061D01*
X249353Y573102D01*
X249353Y569898D01*
X248127Y566939D01*
X245861Y564673D01*
X242902Y563447D01*
X239698Y563447D01*
G37*
%LPD*%
%LPC*%
G36*
X214298Y487247D02*
X214298Y487247D01*
X211339Y488473D01*
X209073Y490739D01*
X207847Y493698D01*
X207847Y496902D01*
X209073Y499861D01*
X211339Y502127D01*
X214298Y503353D01*
X217502Y503353D01*
X220461Y502127D01*
X222727Y499861D01*
X223953Y496902D01*
X223953Y493698D01*
X222727Y490739D01*
X220461Y488473D01*
X217502Y487247D01*
X214298Y487247D01*
G37*
%LPD*%
%LPC*%
G36*
X265098Y487247D02*
X265098Y487247D01*
X262139Y488473D01*
X259873Y490739D01*
X258647Y493698D01*
X258647Y496902D01*
X259873Y499861D01*
X262139Y502127D01*
X265098Y503353D01*
X268302Y503353D01*
X271261Y502127D01*
X273527Y499861D01*
X274753Y496902D01*
X274753Y493698D01*
X273527Y490739D01*
X271261Y488473D01*
X268302Y487247D01*
X265098Y487247D01*
G37*
%LPD*%
%LPC*%
G36*
X290498Y487247D02*
X290498Y487247D01*
X287539Y488473D01*
X285273Y490739D01*
X284047Y493698D01*
X284047Y496902D01*
X285273Y499861D01*
X287539Y502127D01*
X290498Y503353D01*
X293702Y503353D01*
X296661Y502127D01*
X298927Y499861D01*
X300153Y496902D01*
X300153Y493698D01*
X298927Y490739D01*
X296661Y488473D01*
X293702Y487247D01*
X290498Y487247D01*
G37*
%LPD*%
%LPC*%
G36*
X239698Y487247D02*
X239698Y487247D01*
X236739Y488473D01*
X234473Y490739D01*
X233247Y493698D01*
X233247Y496902D01*
X234473Y499861D01*
X236739Y502127D01*
X239698Y503353D01*
X242902Y503353D01*
X245861Y502127D01*
X248127Y499861D01*
X249353Y496902D01*
X249353Y493698D01*
X248127Y490739D01*
X245861Y488473D01*
X242902Y487247D01*
X239698Y487247D01*
G37*
%LPD*%
%LPC*%
G36*
X341788Y464311D02*
X341788Y464311D01*
X339734Y465162D01*
X338162Y466734D01*
X337311Y468788D01*
X337311Y471012D01*
X338162Y473066D01*
X339734Y474638D01*
X341788Y475489D01*
X344012Y475489D01*
X346066Y474638D01*
X347638Y473066D01*
X348489Y471012D01*
X348489Y468788D01*
X347638Y466734D01*
X346066Y465162D01*
X344012Y464311D01*
X341788Y464311D01*
G37*
%LPD*%
%LPC*%
G36*
X163988Y32511D02*
X163988Y32511D01*
X161934Y33362D01*
X160362Y34934D01*
X159511Y36988D01*
X159511Y39212D01*
X160362Y41266D01*
X161934Y42838D01*
X163988Y43689D01*
X166212Y43689D01*
X168266Y42838D01*
X169838Y41266D01*
X170689Y39212D01*
X170689Y36988D01*
X169838Y34934D01*
X168266Y33362D01*
X166212Y32511D01*
X163988Y32511D01*
G37*
%LPD*%
%LPC*%
G36*
X189388Y337311D02*
X189388Y337311D01*
X187334Y338162D01*
X185762Y339734D01*
X184911Y341788D01*
X184911Y344012D01*
X185762Y346066D01*
X187334Y347638D01*
X189388Y348489D01*
X191612Y348489D01*
X193666Y347638D01*
X195238Y346066D01*
X196089Y344012D01*
X196089Y341788D01*
X195238Y339734D01*
X193666Y338162D01*
X191612Y337311D01*
X189388Y337311D01*
G37*
%LPD*%
%LPC*%
G36*
X355599Y675639D02*
X355599Y675639D01*
X355599Y682424D01*
X356765Y682046D01*
X358119Y681356D01*
X359348Y680463D01*
X360423Y679388D01*
X361316Y678159D01*
X362006Y676805D01*
X362384Y675639D01*
X355599Y675639D01*
G37*
%LPD*%
%LPC*%
G36*
X355599Y670561D02*
X355599Y670561D01*
X362384Y670561D01*
X362006Y669395D01*
X361316Y668041D01*
X360423Y666812D01*
X359348Y665737D01*
X358119Y664844D01*
X356765Y664154D01*
X355599Y663776D01*
X355599Y670561D01*
G37*
%LPD*%
%LPC*%
G36*
X343736Y675639D02*
X343736Y675639D01*
X344114Y676805D01*
X344804Y678159D01*
X345697Y679388D01*
X346772Y680463D01*
X348001Y681356D01*
X349355Y682046D01*
X350521Y682424D01*
X350521Y675639D01*
X343736Y675639D01*
G37*
%LPD*%
%LPC*%
G36*
X349355Y664154D02*
X349355Y664154D01*
X348001Y664844D01*
X346772Y665737D01*
X345697Y666812D01*
X344804Y668041D01*
X344114Y669395D01*
X343736Y670561D01*
X350521Y670561D01*
X350521Y663776D01*
X349355Y664154D01*
G37*
%LPD*%
%LPC*%
G36*
X55054Y345376D02*
X55054Y345376D01*
X55054Y352058D01*
X56215Y351681D01*
X57544Y351004D01*
X58750Y350127D01*
X59805Y349072D01*
X60682Y347866D01*
X61359Y346537D01*
X61736Y345376D01*
X55054Y345376D01*
G37*
%LPD*%
%LPC*%
G36*
X43420Y345376D02*
X43420Y345376D01*
X43797Y346537D01*
X44474Y347866D01*
X45351Y349072D01*
X46406Y350127D01*
X47612Y351004D01*
X48941Y351681D01*
X50102Y352058D01*
X50102Y345376D01*
X43420Y345376D01*
G37*
%LPD*%
%LPC*%
G36*
X55054Y340424D02*
X55054Y340424D01*
X61736Y340424D01*
X61359Y339263D01*
X60682Y337934D01*
X59805Y336728D01*
X58750Y335673D01*
X57544Y334796D01*
X56215Y334119D01*
X55054Y333742D01*
X55054Y340424D01*
G37*
%LPD*%
%LPC*%
G36*
X48941Y334119D02*
X48941Y334119D01*
X47612Y334796D01*
X46406Y335673D01*
X45351Y336728D01*
X44474Y337934D01*
X43797Y339263D01*
X43420Y340424D01*
X50102Y340424D01*
X50102Y333742D01*
X48941Y334119D01*
G37*
%LPD*%
%LPC*%
G36*
X603522Y347922D02*
X603522Y347922D01*
X603522Y354193D01*
X603856Y354127D01*
X605451Y353466D01*
X606887Y352507D01*
X608107Y351287D01*
X609066Y349851D01*
X609727Y348256D01*
X609793Y347922D01*
X603522Y347922D01*
G37*
%LPD*%
%LPC*%
G36*
X343322Y409922D02*
X343322Y409922D01*
X343322Y416193D01*
X343656Y416127D01*
X345251Y415466D01*
X346687Y414507D01*
X347907Y413287D01*
X348866Y411851D01*
X349527Y410256D01*
X349593Y409922D01*
X343322Y409922D01*
G37*
%LPD*%
%LPC*%
G36*
X730522Y347922D02*
X730522Y347922D01*
X730522Y354193D01*
X730856Y354127D01*
X732451Y353466D01*
X733887Y352507D01*
X735107Y351287D01*
X736066Y349851D01*
X736727Y348256D01*
X736793Y347922D01*
X730522Y347922D01*
G37*
%LPD*%
%LPC*%
G36*
X943322Y524722D02*
X943322Y524722D01*
X943322Y530993D01*
X943656Y530927D01*
X945251Y530266D01*
X946687Y529307D01*
X947907Y528087D01*
X948866Y526651D01*
X949527Y525056D01*
X949593Y524722D01*
X943322Y524722D01*
G37*
%LPD*%
%LPC*%
G36*
X943322Y520278D02*
X943322Y520278D01*
X949593Y520278D01*
X949527Y519944D01*
X948866Y518349D01*
X947907Y516913D01*
X946687Y515693D01*
X945251Y514734D01*
X943656Y514073D01*
X943322Y514007D01*
X943322Y520278D01*
G37*
%LPD*%
%LPC*%
G36*
X603522Y343478D02*
X603522Y343478D01*
X609793Y343478D01*
X609727Y343144D01*
X609066Y341549D01*
X608107Y340113D01*
X606887Y338893D01*
X605451Y337934D01*
X603856Y337273D01*
X603522Y337207D01*
X603522Y343478D01*
G37*
%LPD*%
%LPC*%
G36*
X719807Y347922D02*
X719807Y347922D01*
X719873Y348256D01*
X720534Y349851D01*
X721493Y351287D01*
X722713Y352507D01*
X724149Y353466D01*
X725744Y354127D01*
X726078Y354193D01*
X726078Y347922D01*
X719807Y347922D01*
G37*
%LPD*%
%LPC*%
G36*
X730522Y343478D02*
X730522Y343478D01*
X736793Y343478D01*
X736727Y343144D01*
X736066Y341549D01*
X735107Y340113D01*
X733887Y338893D01*
X732451Y337934D01*
X730856Y337273D01*
X730522Y337207D01*
X730522Y343478D01*
G37*
%LPD*%
%LPC*%
G36*
X592807Y347922D02*
X592807Y347922D01*
X592873Y348256D01*
X593534Y349851D01*
X594493Y351287D01*
X595713Y352507D01*
X597149Y353466D01*
X598744Y354127D01*
X599078Y354193D01*
X599078Y347922D01*
X592807Y347922D01*
G37*
%LPD*%
%LPC*%
G36*
X932607Y524722D02*
X932607Y524722D01*
X932673Y525056D01*
X933334Y526651D01*
X934293Y528087D01*
X935513Y529307D01*
X936949Y530266D01*
X938544Y530927D01*
X938878Y530993D01*
X938878Y524722D01*
X932607Y524722D01*
G37*
%LPD*%
%LPC*%
G36*
X343322Y405478D02*
X343322Y405478D01*
X349593Y405478D01*
X349527Y405144D01*
X348866Y403549D01*
X347907Y402113D01*
X346687Y400893D01*
X345251Y399934D01*
X343656Y399273D01*
X343322Y399207D01*
X343322Y405478D01*
G37*
%LPD*%
%LPC*%
G36*
X332607Y409922D02*
X332607Y409922D01*
X332673Y410256D01*
X333334Y411851D01*
X334293Y413287D01*
X335513Y414507D01*
X336949Y415466D01*
X338544Y416127D01*
X338878Y416193D01*
X338878Y409922D01*
X332607Y409922D01*
G37*
%LPD*%
%LPC*%
G36*
X338544Y399273D02*
X338544Y399273D01*
X336949Y399934D01*
X335513Y400893D01*
X334293Y402113D01*
X333334Y403549D01*
X332673Y405144D01*
X332607Y405478D01*
X338878Y405478D01*
X338878Y399207D01*
X338544Y399273D01*
G37*
%LPD*%
%LPC*%
G36*
X725744Y337273D02*
X725744Y337273D01*
X724149Y337934D01*
X722713Y338893D01*
X721493Y340113D01*
X720534Y341549D01*
X719873Y343144D01*
X719807Y343478D01*
X726078Y343478D01*
X726078Y337207D01*
X725744Y337273D01*
G37*
%LPD*%
%LPC*%
G36*
X598744Y337273D02*
X598744Y337273D01*
X597149Y337934D01*
X595713Y338893D01*
X594493Y340113D01*
X593534Y341549D01*
X592873Y343144D01*
X592807Y343478D01*
X599078Y343478D01*
X599078Y337207D01*
X598744Y337273D01*
G37*
%LPD*%
%LPC*%
G36*
X938544Y514073D02*
X938544Y514073D01*
X936949Y514734D01*
X935513Y515693D01*
X934293Y516913D01*
X933334Y518349D01*
X932673Y519944D01*
X932607Y520278D01*
X938878Y520278D01*
X938878Y514007D01*
X938544Y514073D01*
G37*
%LPD*%
%LPC*%
G36*
X344868Y573468D02*
X344868Y573468D01*
X344868Y579319D01*
X345249Y579243D01*
X346714Y578636D01*
X348033Y577755D01*
X349155Y576633D01*
X350036Y575314D01*
X350643Y573849D01*
X350719Y573468D01*
X344868Y573468D01*
G37*
%LPD*%
%LPC*%
G36*
X344868Y569532D02*
X344868Y569532D01*
X350719Y569532D01*
X350643Y569151D01*
X350036Y567686D01*
X349155Y566367D01*
X348033Y565245D01*
X346714Y564364D01*
X345249Y563757D01*
X344868Y563681D01*
X344868Y569532D01*
G37*
%LPD*%
%LPC*%
G36*
X335081Y573468D02*
X335081Y573468D01*
X335157Y573849D01*
X335764Y575314D01*
X336645Y576633D01*
X337767Y577755D01*
X339086Y578636D01*
X340551Y579243D01*
X340932Y579319D01*
X340932Y573468D01*
X335081Y573468D01*
G37*
%LPD*%
%LPC*%
G36*
X340551Y563757D02*
X340551Y563757D01*
X339086Y564364D01*
X337767Y565245D01*
X336645Y566367D01*
X335764Y567686D01*
X335157Y569151D01*
X335081Y569532D01*
X340932Y569532D01*
X340932Y563681D01*
X340551Y563757D01*
G37*
%LPD*%
%LPC*%
G36*
X353059Y673099D02*
X353059Y673099D01*
X353059Y673101D01*
X353061Y673101D01*
X353061Y673099D01*
X353059Y673099D01*
G37*
%LPD*%
D10*
X39100Y177400D03*
X39100Y127400D03*
X164100Y127400D03*
X164100Y177400D03*
D11*
X341100Y407700D03*
X214100Y407700D03*
D12*
X139700Y495300D03*
X165100Y495300D03*
X190500Y495300D03*
X215900Y495300D03*
X241300Y495300D03*
X266700Y495300D03*
X292100Y495300D03*
X317500Y495300D03*
X342900Y495300D03*
X342900Y571500D03*
X317500Y571500D03*
X292100Y571500D03*
X266700Y571500D03*
X241300Y571500D03*
X215900Y571500D03*
X190500Y571500D03*
X165100Y571500D03*
X139700Y571500D03*
D11*
X941100Y522500D03*
X941100Y671300D03*
D13*
X276860Y673100D03*
X302260Y673100D03*
X327660Y673100D03*
X353060Y673100D03*
D14*
X165100Y342900D03*
X165100Y317500D03*
X165100Y292100D03*
X52578Y342900D03*
X52578Y317500D03*
X52578Y292100D03*
D11*
X880700Y371100D03*
X880700Y345700D03*
X855300Y371100D03*
X855300Y345700D03*
X829900Y371100D03*
X829900Y345700D03*
X804500Y371100D03*
X804500Y345700D03*
X779100Y371100D03*
X779100Y345700D03*
X753700Y371100D03*
X753700Y345700D03*
X728300Y371100D03*
X728300Y345700D03*
X702900Y371100D03*
X702900Y345700D03*
X677500Y371100D03*
X677500Y345700D03*
X652100Y371100D03*
X652100Y345700D03*
X626700Y371100D03*
X626700Y345700D03*
X601300Y371100D03*
X601300Y345700D03*
X575900Y371100D03*
X575900Y345700D03*
X550500Y371100D03*
X550500Y345700D03*
X525100Y371100D03*
X525100Y345700D03*
X499700Y371100D03*
X499700Y345700D03*
X474300Y371100D03*
X474300Y345700D03*
X448900Y371100D03*
X448900Y345700D03*
X880700Y117100D03*
X880700Y91700D03*
X855300Y117100D03*
X855300Y91700D03*
X829900Y117100D03*
X829900Y91700D03*
X804500Y117100D03*
X804500Y91700D03*
X779100Y117100D03*
X779100Y91700D03*
X753700Y117100D03*
X753700Y91700D03*
X728300Y117100D03*
X728300Y91700D03*
X702900Y117100D03*
X702900Y91700D03*
X677500Y117100D03*
X677500Y91700D03*
X652100Y117100D03*
X652100Y91700D03*
X626700Y117100D03*
X626700Y91700D03*
X601300Y117100D03*
X601300Y91700D03*
X575900Y117100D03*
X575900Y91700D03*
X550500Y117100D03*
X550500Y91700D03*
X525100Y117100D03*
X525100Y91700D03*
X499700Y117100D03*
X499700Y91700D03*
X474300Y117100D03*
X474300Y91700D03*
X448900Y117100D03*
X448900Y91700D03*
D15*
X38100Y38100D03*
X977900Y723900D03*
X38100Y723900D03*
X977900Y38100D03*
D16*
X342900Y469900D03*
X190500Y342900D03*
X165100Y38100D03*
X469900Y504190D03*
X495300Y504190D03*
X101600Y264160D03*
X53340Y373380D03*
X967740Y523240D03*
M02*
