G04 EAGLE Gerber RS-274X export*
G75*
%MOMM*%
%FSLAX34Y34*%
%LPD*%
%IN*%
%IPPOS*%
%AMOC8*
5,1,8,0,0,1.08239X$1,22.5*%
G01*
%ADD10C,0.254000*%


D10*
X0Y0D02*
X1016000Y0D01*
X1016000Y762000D01*
X0Y762000D01*
X0Y0D01*
X525940Y444063D02*
X526016Y443194D01*
X526168Y442334D01*
X526394Y441490D01*
X526692Y440670D01*
X527061Y439878D01*
X527498Y439122D01*
X527999Y438407D01*
X528560Y437738D01*
X529178Y437120D01*
X529847Y436559D01*
X530562Y436058D01*
X531318Y435621D01*
X532110Y435252D01*
X532930Y434954D01*
X533774Y434728D01*
X534634Y434576D01*
X535503Y434500D01*
X536377Y434500D01*
X537247Y434576D01*
X538106Y434728D01*
X538950Y434954D01*
X539770Y435252D01*
X540562Y435621D01*
X541318Y436058D01*
X542033Y436559D01*
X542702Y437120D01*
X543320Y437738D01*
X543881Y438407D01*
X544382Y439122D01*
X544819Y439878D01*
X545188Y440670D01*
X545486Y441490D01*
X545712Y442334D01*
X545864Y443194D01*
X545940Y444063D01*
X545940Y444937D01*
X545864Y445807D01*
X545712Y446666D01*
X545486Y447510D01*
X545188Y448330D01*
X544819Y449122D01*
X544382Y449878D01*
X543881Y450593D01*
X543320Y451262D01*
X542702Y451880D01*
X542033Y452441D01*
X541318Y452942D01*
X540562Y453379D01*
X539770Y453748D01*
X538950Y454046D01*
X538106Y454272D01*
X537247Y454424D01*
X536377Y454500D01*
X535503Y454500D01*
X534634Y454424D01*
X533774Y454272D01*
X532930Y454046D01*
X532110Y453748D01*
X531318Y453379D01*
X530562Y452942D01*
X529847Y452441D01*
X529178Y451880D01*
X528560Y451262D01*
X527999Y450593D01*
X527498Y449878D01*
X527061Y449122D01*
X526692Y448330D01*
X526394Y447510D01*
X526168Y446666D01*
X526016Y445807D01*
X525940Y444937D01*
X525940Y444063D01*
X89060Y444063D02*
X89136Y443194D01*
X89288Y442334D01*
X89514Y441490D01*
X89812Y440670D01*
X90181Y439878D01*
X90618Y439122D01*
X91119Y438407D01*
X91680Y437738D01*
X92298Y437120D01*
X92967Y436559D01*
X93682Y436058D01*
X94438Y435621D01*
X95230Y435252D01*
X96050Y434954D01*
X96894Y434728D01*
X97754Y434576D01*
X98623Y434500D01*
X99497Y434500D01*
X100367Y434576D01*
X101226Y434728D01*
X102070Y434954D01*
X102890Y435252D01*
X103682Y435621D01*
X104438Y436058D01*
X105153Y436559D01*
X105822Y437120D01*
X106440Y437738D01*
X107001Y438407D01*
X107502Y439122D01*
X107939Y439878D01*
X108308Y440670D01*
X108606Y441490D01*
X108832Y442334D01*
X108984Y443194D01*
X109060Y444063D01*
X109060Y444937D01*
X108984Y445807D01*
X108832Y446666D01*
X108606Y447510D01*
X108308Y448330D01*
X107939Y449122D01*
X107502Y449878D01*
X107001Y450593D01*
X106440Y451262D01*
X105822Y451880D01*
X105153Y452441D01*
X104438Y452942D01*
X103682Y453379D01*
X102890Y453748D01*
X102070Y454046D01*
X101226Y454272D01*
X100367Y454424D01*
X99497Y454500D01*
X98623Y454500D01*
X97754Y454424D01*
X96894Y454272D01*
X96050Y454046D01*
X95230Y453748D01*
X94438Y453379D01*
X93682Y452942D01*
X92967Y452441D01*
X92298Y451880D01*
X91680Y451262D01*
X91119Y450593D01*
X90618Y449878D01*
X90181Y449122D01*
X89812Y448330D01*
X89514Y447510D01*
X89288Y446666D01*
X89136Y445807D01*
X89060Y444937D01*
X89060Y444063D01*
X525940Y672663D02*
X526016Y671794D01*
X526168Y670934D01*
X526394Y670090D01*
X526692Y669270D01*
X527061Y668478D01*
X527498Y667722D01*
X527999Y667007D01*
X528560Y666338D01*
X529178Y665720D01*
X529847Y665159D01*
X530562Y664658D01*
X531318Y664221D01*
X532110Y663852D01*
X532930Y663554D01*
X533774Y663328D01*
X534634Y663176D01*
X535503Y663100D01*
X536377Y663100D01*
X537247Y663176D01*
X538106Y663328D01*
X538950Y663554D01*
X539770Y663852D01*
X540562Y664221D01*
X541318Y664658D01*
X542033Y665159D01*
X542702Y665720D01*
X543320Y666338D01*
X543881Y667007D01*
X544382Y667722D01*
X544819Y668478D01*
X545188Y669270D01*
X545486Y670090D01*
X545712Y670934D01*
X545864Y671794D01*
X545940Y672663D01*
X545940Y673537D01*
X545864Y674407D01*
X545712Y675266D01*
X545486Y676110D01*
X545188Y676930D01*
X544819Y677722D01*
X544382Y678478D01*
X543881Y679193D01*
X543320Y679862D01*
X542702Y680480D01*
X542033Y681041D01*
X541318Y681542D01*
X540562Y681979D01*
X539770Y682348D01*
X538950Y682646D01*
X538106Y682872D01*
X537247Y683024D01*
X536377Y683100D01*
X535503Y683100D01*
X534634Y683024D01*
X533774Y682872D01*
X532930Y682646D01*
X532110Y682348D01*
X531318Y681979D01*
X530562Y681542D01*
X529847Y681041D01*
X529178Y680480D01*
X528560Y679862D01*
X527999Y679193D01*
X527498Y678478D01*
X527061Y677722D01*
X526692Y676930D01*
X526394Y676110D01*
X526168Y675266D01*
X526016Y674407D01*
X525940Y673537D01*
X525940Y672663D01*
X89060Y672663D02*
X89136Y671794D01*
X89288Y670934D01*
X89514Y670090D01*
X89812Y669270D01*
X90181Y668478D01*
X90618Y667722D01*
X91119Y667007D01*
X91680Y666338D01*
X92298Y665720D01*
X92967Y665159D01*
X93682Y664658D01*
X94438Y664221D01*
X95230Y663852D01*
X96050Y663554D01*
X96894Y663328D01*
X97754Y663176D01*
X98623Y663100D01*
X99497Y663100D01*
X100367Y663176D01*
X101226Y663328D01*
X102070Y663554D01*
X102890Y663852D01*
X103682Y664221D01*
X104438Y664658D01*
X105153Y665159D01*
X105822Y665720D01*
X106440Y666338D01*
X107001Y667007D01*
X107502Y667722D01*
X107939Y668478D01*
X108308Y669270D01*
X108606Y670090D01*
X108832Y670934D01*
X108984Y671794D01*
X109060Y672663D01*
X109060Y673537D01*
X108984Y674407D01*
X108832Y675266D01*
X108606Y676110D01*
X108308Y676930D01*
X107939Y677722D01*
X107502Y678478D01*
X107001Y679193D01*
X106440Y679862D01*
X105822Y680480D01*
X105153Y681041D01*
X104438Y681542D01*
X103682Y681979D01*
X102890Y682348D01*
X102070Y682646D01*
X101226Y682872D01*
X100367Y683024D01*
X99497Y683100D01*
X98623Y683100D01*
X97754Y683024D01*
X96894Y682872D01*
X96050Y682646D01*
X95230Y682348D01*
X94438Y681979D01*
X93682Y681542D01*
X92967Y681041D01*
X92298Y680480D01*
X91680Y679862D01*
X91119Y679193D01*
X90618Y678478D01*
X90181Y677722D01*
X89812Y676930D01*
X89514Y676110D01*
X89288Y675266D01*
X89136Y674407D01*
X89060Y673537D01*
X89060Y672663D01*
M02*
